<svg aria-hidden="true" style="position: absolute; width: 0; height: 0; overflow: hidden;" version="1.1" xmlns="http://www.w3.org/2000/svg" xmlns:xlink="http://www.w3.org/1999/xlink">
<defs>
<symbol id="icon-map-marker" viewBox="0 0 16 28">
<path d="M12 10c0-2.203-1.797-4-4-4s-4 1.797-4 4 1.797 4 4 4 4-1.797 4-4zM16 10c0 0.953-0.109 1.937-0.516 2.797l-5.688 12.094c-0.328 0.688-1.047 1.109-1.797 1.109s-1.469-0.422-1.781-1.109l-5.703-12.094c-0.406-0.859-0.516-1.844-0.516-2.797 0-4.422 3.578-8 8-8s8 3.578 8 8z"></path>
</symbol>
<symbol id="icon-location" viewBox="0 0 32 32">
<path d="M15.938 32c0 0-9.938-14.062-9.938-20.062 0-11.813 9.938-11.938 9.938-11.938s10.062 0.125 10.062 11.875c0 6.187-10.062 20.125-10.062 20.125zM16 6c-2.209 0-4 1.791-4 4s1.791 4 4 4 4-1.791 4-4-1.791-4-4-4z"></path>
</symbol>
<symbol id="icon-arrow_5" viewBox="0 0 32 32">
<path d="M16.001 22.418c1.037 0 1.878 0.84 1.878 1.879 0 1.037-0.84 1.879-1.878 1.879-1.040 0-1.88-0.841-1.88-1.879s0.84-1.879 1.88-1.879z"></path>
<path d="M16.001 11.354c1.037 0 1.878 0.84 1.878 1.879s-0.84 1.881-1.878 1.881c-1.040 0-1.88-0.843-1.88-1.881s0.84-1.879 1.88-1.879z"></path>
<path d="M16.001 5.822c1.037 0 1.878 0.842 1.878 1.88 0 1.037-0.84 1.879-1.878 1.879-1.040 0-1.88-0.841-1.88-1.879s0.84-1.88 1.88-1.88z"></path>
<path d="M16.001 0.292c1.037 0 1.878 0.842 1.878 1.879 0 1.039-0.84 1.88-1.878 1.88-1.040 0-1.88-0.842-1.88-1.88-0.001-1.037 0.84-1.879 1.88-1.879z"></path>
<path d="M16.001 27.948c1.037 0 1.878 0.842 1.878 1.879 0 1.039-0.84 1.881-1.878 1.881-1.040 0-1.88-0.842-1.88-1.881-0.001-1.037 0.84-1.879 1.88-1.879z"></path>
<path d="M10.589 22.418c1.038 0 1.881 0.84 1.881 1.879 0 1.037-0.843 1.879-1.881 1.879-1.037 0-1.877-0.841-1.877-1.879s0.84-1.879 1.877-1.879z"></path>
<path d="M23.076 24.297c0 1.038-0.841 1.879-1.879 1.879s-1.879-0.841-1.879-1.879c0-1.038 0.841-1.879 1.879-1.879s1.879 0.841 1.879 1.879z"></path>
<path d="M16.001 16.886c1.037 0 1.878 0.842 1.878 1.88s-0.84 1.88-1.878 1.88c-1.040 0-1.88-0.84-1.88-1.88-0.001-1.038 0.84-1.88 1.88-1.88z"></path>
<path d="M7.306 18.765c0 1.038-0.842 1.88-1.88 1.88s-1.88-0.842-1.88-1.88c0-1.038 0.842-1.88 1.88-1.88s1.88 0.842 1.88 1.88z"></path>
<path d="M10.714 16.886c1.037 0 1.88 0.842 1.88 1.88s-0.842 1.88-1.88 1.88c-1.040 0-1.88-0.84-1.88-1.88 0-1.038 0.84-1.88 1.88-1.88z"></path>
<path d="M28.453 18.765c0 1.038-0.842 1.88-1.88 1.88s-1.88-0.842-1.88-1.88c0-1.038 0.842-1.88 1.88-1.88s1.88 0.842 1.88 1.88z"></path>
<path d="M21.287 16.886c1.039 0 1.879 0.842 1.879 1.88s-0.84 1.88-1.879 1.88c-1.039 0-1.88-0.84-1.88-1.88 0-1.038 0.841-1.88 1.88-1.88z"></path>
</symbol>
<symbol id="icon-arrow_8" viewBox="0 0 32 32">
<path d="M9.957 6.919l4.522-4.322 0.005 13.82-3.344-0.067c0 0-5.043 0.361-5.305-5.007l-0.101-9.098 4.222 4.675z"></path>
<path d="M17.645 12.92v12.55h0.031l0.030 4.286 8.559-8.218z"></path>
<path d="M8.925 17.553c-1.22-0.383-2.465-1.83-2.465-1.83 0.739 8.564 7.567 9.709 7.567 9.709l2.228 0.022v-7.492c-2.283-0.057-6.65-0.194-7.331-0.41z"></path>
</symbol>
<symbol id="icon-bed_4" viewBox="0 0 32 32">
<path d="M16.071 10.684c-8.222 0-14.975 2.84-15.345 7.777h30.593c-0.371-4.937-7.026-7.777-15.247-7.777z"></path>
<path d="M31.341 19.395h-30.682v9.734h3.651l0.126-5.361 22.76-0.093 0.1 5.454h4.045z"></path>
<path d="M26.826 2.871h-21.611l-0.938 0.63v9.124l2.325-1.34c0.221-2.945 1.809-6.829 9.79-6.631 6.425 0.159 8.899 3.686 9.119 6.631l2.255 1.34v-9.016l-0.94-0.738z"></path>
</symbol>
<symbol id="icon-bell" viewBox="0 0 32 32">
<path d="M16.282 30c0-0.186-0.093-0.278-0.282-0.278-0.688 0-1.28-0.246-1.776-0.742s-0.742-1.088-0.742-1.776c0-0.186-0.093-0.282-0.278-0.282s-0.282 0.093-0.282 0.282c0 0.851 0.301 1.578 0.902 2.179s1.328 0.902 2.179 0.902c0.182-0.003 0.278-0.099 0.278-0.285v0zM4.624 24.96h22.749c-3.101-3.501-4.653-8.355-4.653-14.56 0-0.595-0.141-1.206-0.419-1.837s-0.682-1.232-1.206-1.802-1.232-1.040-2.125-1.408-1.885-0.554-2.97-0.554c-1.085 0-2.074 0.186-2.966 0.55-0.893 0.368-1.6 0.835-2.125 1.408s-0.928 1.174-1.206 1.802c-0.282 0.627-0.419 1.242-0.419 1.837 0 6.211-1.552 11.062-4.659 14.563v0zM30.56 24.96c0 0.605-0.221 1.13-0.666 1.574s-0.97 0.666-1.574 0.666h-7.84c0 1.235-0.438 2.291-1.312 3.168-0.874 0.874-1.93 1.312-3.168 1.312-1.235 0-2.291-0.438-3.168-1.312-0.874-0.874-1.312-1.93-1.312-3.168h-7.84c-0.605 0-1.13-0.221-1.574-0.666s-0.666-0.97-0.666-1.574c0.582-0.49 1.114-1.002 1.594-1.539s0.973-1.235 1.488-2.090c0.512-0.858 0.947-1.782 1.302-2.774s0.646-2.195 0.874-3.606c0.227-1.411 0.342-2.928 0.342-4.55 0-1.773 0.682-3.421 2.048-4.944s3.155-2.448 5.373-2.774c-0.093-0.221-0.141-0.448-0.141-0.682 0-0.467 0.163-0.864 0.49-1.19s0.723-0.49 1.19-0.49c0.467 0 0.864 0.163 1.19 0.49s0.49 0.723 0.49 1.19c0 0.234-0.048 0.461-0.141 0.682 2.218 0.326 4.010 1.251 5.373 2.774s2.048 3.171 2.048 4.944c0 1.622 0.115 3.139 0.342 4.55s0.518 2.614 0.874 3.606c0.355 0.992 0.79 1.917 1.302 2.774 0.515 0.858 1.008 1.555 1.488 2.090 0.48 0.538 1.011 1.050 1.594 1.539v0z"></path>
</symbol>
<symbol id="icon-border2" viewBox="0 0 32 32">
<path d="M14.844 1.793c-0.609 0.812-1.13 1.517-1.155 1.562-0.038 0.063 0.019 0.057 0.197-0.019 1.34-0.565 2.063-0.857 2.114-0.857s0.774 0.292 2.114 0.857c0.178 0.076 0.235 0.083 0.197 0.019-0.159-0.254-2.273-3.035-2.311-3.035-0.025 0-0.546 0.667-1.156 1.473z"></path>
<path d="M9.969 1.482c0 0.019-0.216 0.863-0.476 1.873s-0.476 1.86-0.476 1.892 0.406-0.349 0.908-0.844l0.901-0.908 1.27-0.013 1.27-0.019-1.555-0.914c-0.857-0.508-1.619-0.959-1.695-1.009-0.083-0.051-0.146-0.076-0.146-0.057z"></path>
<path d="M20.291 2.485l-1.714 1.009h2.596l0.889 0.889c0.483 0.483 0.895 0.876 0.908 0.863 0.019-0.025-0.927-3.726-0.958-3.758-0.006-0.006-0.781 0.444-1.721 0.997z"></path>
<path d="M14.876 4.199c-3.504 0.336-6.755 2.292-8.741 5.263-0.47 0.692-1.124 2.025-1.378 2.793-1.467 4.425-0.26 9.249 3.104 12.449 3.574 3.403 8.887 4.247 13.331 2.12 3.339-1.6 5.751-4.653 6.526-8.253 0.87-4.063-0.432-8.272-3.453-11.148-2.514-2.393-5.916-3.561-9.389-3.225z"></path>
<path d="M4.891 4.935c0 0.051 0.489 3.561 0.527 3.764 0.006 0.051 0.228-0.419 0.483-1.047 0.26-0.628 0.501-1.174 0.54-1.212s0.584-0.279 1.212-0.54c0.628-0.254 1.098-0.476 1.047-0.483-0.203-0.038-3.714-0.527-3.758-0.527-0.032 0-0.051 0.019-0.051 0.044z"></path>
<path d="M25.173 5.145c-0.908 0.133-1.72 0.254-1.809 0.267-0.108 0.013 0.184 0.159 0.984 0.489 0.628 0.26 1.174 0.501 1.212 0.54s0.279 0.584 0.533 1.212l0.47 1.143 0.273-1.873c0.146-1.028 0.267-1.911 0.273-1.955 0-0.101-0.025-0.101-1.936 0.178z"></path>
<path d="M3.367 9.487c-0.959 0.254-1.778 0.47-1.822 0.489-0.038 0.013 0.33 0.705 0.921 1.708l0.997 1.682 0.019-1.27 0.013-1.27 0.908-0.908c0.495-0.495 0.857-0.901 0.806-0.895-0.051 0-0.882 0.21-1.841 0.464z"></path>
<path d="M27.598 9.918l0.908 0.908 0.013 1.27 0.019 1.27 0.99-1.682c0.546-0.927 0.99-1.689 0.984-1.695-0.019-0.019-3.695-0.971-3.758-0.971-0.032-0 0.349 0.406 0.844 0.901z"></path>
<path d="M1.856 14.8c-0.844 0.635-1.536 1.174-1.536 1.2 0 0.038 2.774 2.152 3.035 2.311 0.063 0.038 0.057-0.019-0.019-0.197-0.565-1.34-0.857-2.063-0.857-2.114s0.298-0.781 0.857-2.114c0.051-0.127 0.089-0.235 0.076-0.235s-0.711 0.521-1.555 1.149z"></path>
<path d="M28.665 13.886c0.057 0.133 0.279 0.66 0.489 1.174l0.387 0.94-0.387 0.933c-0.21 0.521-0.432 1.047-0.489 1.181-0.076 0.178-0.076 0.235-0.019 0.197 0.254-0.159 3.034-2.273 3.034-2.311s-2.78-2.152-3.035-2.311c-0.057-0.038-0.057 0.019 0.019 0.197z"></path>
<path d="M2.472 20.317c-0.552 0.927-0.99 1.689-0.984 1.695 0.019 0.019 3.695 0.971 3.758 0.971 0.032 0-0.349-0.406-0.844-0.908l-0.908-0.901-0.013-1.27-0.019-1.276-0.99 1.689z"></path>
<path d="M28.506 19.91v1.263l-0.889 0.889c-0.483 0.483-0.876 0.895-0.863 0.908 0.025 0.019 3.726-0.927 3.758-0.958 0.013-0.019-1.898-3.257-1.962-3.32-0.026-0.026-0.044 0.52-0.044 1.219z"></path>
<path d="M5.157 25.148c-0.152 1.054-0.26 1.924-0.248 1.943 0.019 0.013 0.895-0.095 1.955-0.248l1.93-0.279-1.143-0.47c-0.628-0.254-1.174-0.495-1.212-0.533s-0.279-0.578-0.533-1.2c-0.254-0.616-0.463-1.124-0.47-1.124s-0.133 0.863-0.279 1.91z"></path>
<path d="M26.1 24.348c-0.26 0.628-0.501 1.174-0.54 1.212s-0.514 0.248-1.054 0.47c-0.54 0.216-1.047 0.432-1.13 0.47-0.121 0.063 0.159 0.121 1.771 0.343 1.054 0.152 1.924 0.26 1.943 0.248 0.019-0.025-0.4-3.18-0.508-3.79-0.007-0.051-0.229 0.419-0.483 1.047z"></path>
<path d="M9.017 26.754c0 0.063 0.952 3.739 0.971 3.758 0.006 0.006 0.768-0.438 1.695-0.984l1.682-0.99-1.27-0.019-1.27-0.013-0.901-0.908c-0.501-0.495-0.908-0.876-0.908-0.844z"></path>
<path d="M22.062 27.617l-0.883 0.889-1.276 0.013-1.27 0.019 1.682 0.99c0.927 0.546 1.689 0.99 1.695 0.984 0.032-0.032 0.978-3.733 0.958-3.758-0.012-0.013-0.425 0.374-0.908 0.863z"></path>
<path d="M13.689 28.645c0.159 0.254 2.273 3.035 2.311 3.035s2.152-2.78 2.311-3.035c0.038-0.057-0.019-0.057-0.197 0.019-0.133 0.057-0.66 0.279-1.174 0.489l-0.94 0.387-0.933-0.387c-0.521-0.21-1.047-0.432-1.181-0.489-0.178-0.076-0.235-0.076-0.197-0.019z"></path>
</symbol>
<symbol id="icon-briefcase-1" viewBox="0 0 32 32">
<path d="M29.333 6.667h-6.667v-1.333c0-1.471-1.196-2.667-2.667-2.667h-8c-1.471 0-2.667 1.196-2.667 2.667v1.333h-6.667c-1.471 0-2.667 1.196-2.667 2.667v17.333c0 1.471 1.196 2.667 2.667 2.667h26.667c1.471 0 2.667-1.196 2.667-2.667v-17.333c-0-1.471-1.196-2.667-2.667-2.667zM10.667 5.333c0-0.735 0.598-1.333 1.333-1.333h8c0.735 0 1.333 0.598 1.333 1.333v1.333h-10.667v-1.333zM30.667 26.667c0 0.735-0.598 1.333-1.333 1.333h-26.667c-0.735 0-1.333-0.598-1.333-1.333v-9.704c0.394 0.23 0.845 0.371 1.333 0.371h10.667v2c0 0.369 0.298 0.667 0.667 0.667h4c0.369 0 0.667-0.298 0.667-0.667v-2h10.667c0.488 0 0.94-0.141 1.333-0.371v9.704zM14.667 18.667v-2.667h2.667v2.667h-2.667zM30.667 14.667c0 0.735-0.598 1.333-1.333 1.333h-10.667v-0.667c0-0.368-0.298-0.667-0.667-0.667h-4c-0.368 0-0.667 0.298-0.667 0.667v0.667h-10.667c-0.735 0-1.333-0.598-1.333-1.333v-5.333c0-0.735 0.598-1.333 1.333-1.333h26.667c0.735 0 1.333 0.598 1.333 1.333v5.333z"></path>
</symbol>
<symbol id="icon-briefcase" viewBox="0 0 32 32">
<path d="M4.26 8.027h7.345c-0.374-0.631-0.559-1.329-0.559-2.1 0-2.493 2.238-4.525 4.99-4.525 2.774 0 5.014 2.031 5.014 4.525 0 0.771-0.188 1.469-0.561 2.1h7.25c1.469 0 2.682 1.165 2.682 2.611v5.316c0 1.421-1.213 2.612-2.682 2.612h-8.79v-2.988h-5.852v2.988h-8.836c-1.469 0-2.682-1.191-2.682-2.612v-5.316c0-1.446 1.213-2.611 2.682-2.611v0zM25.967 29.478h1.259c0.257 0 0.467 0.211 0.467 0.444v0.234c0 0.256-0.209 0.442-0.467 0.442h-1.259c-0.254 0-0.465-0.186-0.465-0.442v-0.234c0.001-0.232 0.211-0.444 0.465-0.444v0zM4.936 29.478h1.235c0.255 0 0.467 0.211 0.467 0.444v0.234c0 0.256-0.211 0.442-0.467 0.442h-1.235c-0.257 0-0.467-0.186-0.467-0.442v-0.234c-0.001-0.232 0.21-0.444 0.467-0.444v0zM12.257 8.027h7.37c0.138-0.399 0.207-0.817 0.207-1.238 0-2.193-1.748-3.963-3.892-3.963-2.123 0-3.875 1.771-3.875 3.963 0 0.42 0.072 0.839 0.189 1.238v0zM18.109 18.568v-2.194h-4.173v2.194h4.173zM1.276 18.1c0 2.634 0 5.268 0 7.903 0 1.61 1.28 2.892 2.889 2.892 7.882 0 15.787 0 23.67 0 1.583 0 2.89-1.281 2.89-2.892 0-2.61 0-5.2 0-7.81 0-0.070-0.070-0.164-0.094-0.093-0.28 0.838-1.213 1.376-2.33 1.399-3.124 0.046-6.25 0.141-9.352 0.185v1.727h-5.852v-1.702c-3.053-0.025-6.134-0.139-9.211-0.397-1.141-0.116-2.076-0.49-2.61-1.212v0zM13.936 19.731c1.398 0 2.774-0.022 4.173-0.022v1.001h-4.173v-0.979z"></path>
</symbol>
<symbol id="icon-bulb1" viewBox="0 0 32 32">
<path d="M11.615 4.958c-0.506 0.136-1.011 0.543-1.496 1.204-0.621 0.619-0.99 1.164-1.027 1.667 0.679 0.641 1.533 1.027 2.523 1.204h0.058c0-0.796 0.058-1.436 0.173-1.94 0.097-0.564 0.388-1.107 0.874-1.631-0.195-0.040-0.389-0.136-0.602-0.271-0.369-0.156-0.544-0.232-0.503-0.232z"></path>
<path d="M25.528 7.597c-0.484-1.068-1.204-2.117-2.116-3.164-1.027-1.049-2.152-1.827-3.414-2.369-1.203-0.564-2.543-0.834-4.018-0.834-1.649 0.077-3.008 0.387-4.074 0.913-1.204 0.543-2.309 1.377-3.3 2.486-0.971 1.027-1.67 2.133-2.097 3.316-0.522 1.379-0.774 2.62-0.774 3.727 0.058 1.066 0.408 2.152 1.048 3.28 0.602 1.203 1.377 2.369 2.366 3.51 0.601 0.816 1.050 1.38 1.3 1.692 0.332 0.426 0.7 0.93 1.106 1.492 0.271 0.354 0.495 0.656 0.672 0.913h7.329c0.176-0.262 0.401-0.584 0.677-0.97 0.135-0.214 0.504-0.68 1.146-1.377 0.191-0.271 0.405-0.543 0.678-0.815 0.231-0.293 0.485-0.564 0.698-0.872 1.028-1.146 1.864-2.31 2.465-3.514 0.64-1.066 0.971-2.176 1.049-3.338v-0.449c-0.002-1.164-0.255-2.369-0.741-3.629zM12.273 20.498c-9.324-11.178 0.304-16.154 0.497-16.115-6.744 5.795-0.497 16.115-0.497 16.115z"></path>
<path d="M19.782 24.284c0-0.351-0.001-0.573-0.446-0.94 0-0.016-6.823-0.076-6.81-0.029-0.506 0.253-0.582 0.581-0.621 0.969 0.029 0.295 0.207 0.589 0.58 0.775l6.851 0.001c0.296-0.234 0.446-0.492 0.446-0.776z"></path>
<path d="M19.782 26.498c0-0.299-0.116-0.565-0.354-0.801h-7.032c-0.299 0.211-0.462 0.479-0.492 0.801 0 0.218 0.127 0.434 0.39 0.643h7.163c0.214-0.21 0.324-0.425 0.324-0.643z"></path>
<path d="M19.782 28.38c0-0.24-0.116-0.451-0.354-0.645h-7.044c-0.327 0.227-0.479 0.439-0.479 0.645 0.033 0.333 0.247 0.56 0.62 0.691h6.769c0.323-0.131 0.488-0.359 0.488-0.691z"></path>
<path d="M13.633 30.363c0.444 0.212 1.183 0.348 2.21 0.406 1.068-0.059 1.863-0.194 2.368-0.406 0.493-0.123 0.773-0.344 0.87-0.653h-6.321c0.094 0.321 0.377 0.543 0.873 0.653z"></path>
</symbol>
<symbol id="icon-calculator" viewBox="0 0 32 32">
<path d="M23.792 0.786h-15.585c-1.679 0-3.039 1.322-3.039 2.95v24.527c0 1.63 1.36 2.95 3.039 2.95h15.585c1.677 0 3.040-1.32 3.040-2.95v-24.527c0-1.629-1.363-2.95-3.040-2.95zM8.954 15.809v-2.781h2.627v2.781h-2.627zM8.979 16.945h2.628v2.783h-2.628v-2.783zM9.159 20.787h2.627v2.78h-2.627v-2.78zM11.941 27.824h-2.628v-2.782h2.628v2.782zM12.89 15.809v-2.781h2.626v2.781h-2.626zM12.914 16.945h2.627v2.783h-2.627v-2.783zM13.094 20.787h2.628v2.78h-2.628v-2.78zM15.875 27.824h-2.627v-2.782h2.627v2.782zM16.822 15.809v-2.781h2.627v2.781h-2.627zM16.848 16.945h2.627v2.783h-2.627v-2.783zM17.027 20.787h2.627v2.78h-2.627v-2.78zM19.809 27.824h-2.627v-2.782h2.627v2.782zM20.758 15.809v-2.781h2.627v2.781h-2.627zM20.783 16.945h2.627v2.783h-2.627v-2.783zM23.588 28.047h-2.627v-7.26h2.627v7.26zM22.18 9.336h-12.673c-0.984 0-1.778-0.969-1.778-2.165 0-1.194 0.794-2.163 1.778-2.163h12.673c0.982 0 1.777 0.969 1.777 2.163 0.002 1.196-0.795 2.164-1.777 2.164z"></path>
</symbol>
<symbol id="icon-diamond-1" viewBox="0 0 32 32">
<path d="M0.168 11.409l14.059 17.453-6.377-17.453z"></path>
<path d="M9.103 11.409l6.794 18.595 6.928-18.595z"></path>
<path d="M17.411 29.313l14.421-17.904h-7.752z"></path>
<path d="M26.331 1.996h-9.094l6.236 7.675z"></path>
<path d="M22.412 10.232l-6.412-7.891-6.412 7.891z"></path>
<path d="M14.764 1.996h-9.101l2.823 7.727z"></path>
<path d="M4.683 2.74l-4.683 7.492h7.419z"></path>
<path d="M32 10.232l-4.687-7.499-2.795 7.499z"></path>
</symbol>
<symbol id="icon-diamond-2" viewBox="0 0 32 32">
<path d="M16 26.296l4.339-13.499h-8.678z"></path>
<path d="M22.308 12.797l-5.474 17.030 14.981-17.030z"></path>
<path d="M9.692 12.797h-9.507l14.981 17.030z"></path>
<path d="M32 10.922l-3.69-7.727-4.968 7.727z"></path>
<path d="M5.262 2.172l5.113 7.954 5.113-7.954z"></path>
<path d="M16.512 2.172l5.113 7.954 5.113-7.954z"></path>
<path d="M12.092 10.922h7.816l-3.908-6.079z"></path>
<path d="M3.69 3.195l-3.69 7.727h8.658z"></path>
</symbol>
<symbol id="icon-diamond" viewBox="0 0 32 32">
<path d="M31.115 12.925h-7.551l-5.564 13.91z"></path>
<path d="M0.896 12.925l13.033 13.629-5.2-13.629z"></path>
<path d="M21.756 12.925h-11.233l5.485 14.374z"></path>
<path d="M14.551 4.701h-8.095l3.763 5.166z"></path>
<path d="M25.356 4.701h-8.545l4.192 5.144z"></path>
<path d="M0.729 11.228h8.406l-3.93-5.395z"></path>
<path d="M31.271 11.228l-4.576-5.514-4.665 5.514z"></path>
<path d="M11.266 11.228h8.701l-4.288-5.26z"></path>
</symbol>
<symbol id="icon-flag_2" viewBox="0 0 32 32">
<path d="M4.218 3.923h2.28v27.572h-2.28v-27.572z"></path>
<path d="M7.409 2.554c0 1.133-0.918 2.051-2.051 2.051s-2.051-0.918-2.051-2.051c0-1.133 0.918-2.051 2.051-2.051s2.051 0.918 2.051 2.051z"></path>
<path d="M17.881 17.446c-0.005 0.204-0.017 0.22-0.097 0.036-0.944-2.176-8.659-2.806-10.461 1.238 0.201-4.463-0.069-5.786 0.142-12.047 4.045-6.621 10.58-0.618 10.58-0.618s-0.020 3.975-0.165 11.391z"></path>
<path d="M18.812 9.225c0 0 5.978 3.26 9.581-1.305 0.061-0.077 0.301 11.83 0.301 11.83s-4.325 5.585-10.474 1l0.428-1.051c-0.001 0 0.236-2.231 0.165-10.474z"></path>
<path d="M16.463 17.132l-0.001 2.885c0 0 0.79 0.085 1.103-0.279 0.372-0.434 0.147-1.331-0.34-1.903-0.893-1.050-0.762-0.86-0.762-0.86z"></path>
</symbol>
<symbol id="icon-heart-regular" viewBox="0 0 32 32">
<path d="M28.65 4.019c-3.613-3.038-9.194-2.581-12.65 0.938-3.456-3.519-9.037-3.981-12.65-0.938-4.7 3.956-4.013 10.406-0.663 13.825l10.963 11.169c0.625 0.637 1.463 0.994 2.35 0.994 0.894 0 1.725-0.35 2.35-0.988l10.963-11.169c3.344-3.419 4.044-9.869-0.663-13.831zM27.175 15.738l-10.963 11.169c-0.15 0.15-0.275 0.15-0.425 0l-10.963-11.169c-2.281-2.325-2.744-6.725 0.456-9.419 2.431-2.044 6.181-1.737 8.531 0.656l2.188 2.231 2.188-2.231c2.363-2.406 6.113-2.7 8.531-0.662 3.194 2.694 2.719 7.119 0.456 9.425z"></path>
</symbol>
<symbol id="icon-heart-solid" viewBox="0 0 32 32">
<path d="M28.894 3.913c-3.425-2.919-8.519-2.394-11.662 0.85l-1.231 1.269-1.231-1.269c-3.137-3.244-8.238-3.769-11.662-0.85-3.925 3.35-4.131 9.363-0.619 12.994l12.094 12.488c0.781 0.806 2.050 0.806 2.831 0l12.094-12.488c3.519-3.631 3.313-9.644-0.613-12.994z"></path>
</symbol>
<symbol id="icon-key" viewBox="0 0 32 32">
<path d="M18.522 3.701c0 1.641-1.209 2.971-2.7 2.971s-2.7-1.33-2.7-2.971c0-1.641 1.209-2.971 2.7-2.971s2.7 1.33 2.7 2.971z"></path>
<path d="M18.525 10.113c0 1.553-1.209 2.812-2.701 2.812s-2.701-1.259-2.701-2.812 1.209-2.812 2.701-2.812c1.492 0 2.701 1.259 2.701 2.812z"></path>
<path d="M14.294 6.903c0 1.491-1.293 2.699-2.887 2.699s-2.887-1.209-2.887-2.7c0-1.491 1.293-2.7 2.887-2.7s2.887 1.209 2.887 2.7z"></path>
<path d="M23.482 7.003c0 1.492-1.341 2.701-2.996 2.701s-2.996-1.209-2.996-2.701c0-1.492 1.341-2.701 2.996-2.701s2.996 1.21 2.996 2.701z"></path>
<path d="M14.653 11.946h1.851v19.323h-1.851v-19.323z"></path>
<path d="M16.936 24.52h4.502v1.188h-3.235v1.050h1.969l0.038 1.309-1.93 0.015-0.037 1.032 4.152-0.013v1.126l-5.398 0.036z"></path>
</symbol>
<symbol id="icon-lamp_11" viewBox="0 0 32 32">
<path d="M12.556 18.085c0 2.035 1.542 3.686 3.443 3.686 1.903 0 3.444-1.651 3.444-3.686z"></path>
<path d="M12.541 3.889h6.918v6.362h-6.918v-6.362z"></path>
<path d="M2.962 16.739c2.164-5.471 7.232-9.312 13.137-9.312 5.732 0 10.675 3.619 12.94 8.836z"></path>
<path d="M16.478 24.65l0.037 5.949-1.28 0.008-0.037-5.949 1.28-0.008z"></path>
<path d="M20.304 23.223l3.381 3.221-0.883 0.927-3.381-3.221 0.883-0.927z"></path>
<path d="M12.435 23.967l-3.058 3.22-0.928-0.881 3.058-3.22 0.928 0.881z"></path>
<path d="M15.315 1.394h1.692v3.376h-1.692v-3.376z"></path>
</symbol>
<symbol id="icon-loupe" viewBox="0 0 32 32">
<path d="M31.609 29.724l-9.1-9.1c1.763-2.177 2.824-4.944 2.824-7.957 0-6.984-5.683-12.667-12.667-12.667s-12.666 5.683-12.666 12.666 5.683 12.667 12.667 12.667c3.013 0 5.78-1.061 7.957-2.824l9.1 9.1c0.26 0.26 0.601 0.391 0.943 0.391s0.683-0.131 0.943-0.391c0.521-0.521 0.521-1.364-0-1.885zM12.667 22.667c-5.515 0-10-4.485-10-10s4.485-10 10-10 10 4.485 10 10-4.485 10-10 10z"></path>
</symbol>
<symbol id="icon-paper_pin_1" viewBox="0 0 32 32">
<path d="M24.404 4.648c-1.087-1.095-2.488-1.882-4.202-2.669-1.869-0.631-3.43-0.638-4.213 0.139-0.314 0.311-0.472 0.779-0.474 1.403 0.156 0.156 0.308 0.625 0.618 1.562l-4.553 7.005c-1.716-0.163-3.121 0.299-4.219 1.388-1.411 1.398-1.105 3.272 1.070 5.465 0.777 0.784 1.711 1.41 2.802 2.195l-4.408 9.346 5.652-8.716c1.246 0.629 2.648 1.105 3.898 1.108 1.87 0.321 3.12 0.012 3.904-0.764 0.783-0.776 1.098-1.713 0.635-2.804 0.004-0.938-0.618-1.877-1.238-2.816l3.464-8.099c1.094-0.152 1.562-0.306 1.877-0.618 0.783-0.775 0.632-1.869-0.612-3.123zM19.053 16.797c0 0 0 0-0.159 0.157-0.312 0.31-1.094 0.464-2.185 0.304-0.468-0.159-0.935-0.317-1.403-0.474l5.34-9.030 1.871 0.633-3.465 8.41zM24.062 5.969c-0.314 0.579-1.878 0.334-3.496-0.545-1.616-0.879-2.671-2.061-2.358-2.641 0.316-0.579 1.881-0.333 3.499 0.547 1.616 0.879 2.67 2.060 2.355 2.639z"></path>
</symbol>
<symbol id="icon-right_double_quotation_mark" viewBox="0 0 32 32">
<path d="M2.659 4.291h10.074v10.076c0 7.166-2.996 13.341-9.982 13.341v-4.539c4.083 0 5.263-4.628 5.263-8.803h-5.355v-10.076zM19.268 4.291h10.072v10.076c0 7.166-2.995 13.341-9.983 13.341v-4.539c4.083 0 5.265-4.628 5.265-8.803h-5.355v-10.076z"></path>
</symbol>
<symbol id="icon-still_camera" viewBox="0 0 32 32">
<path d="M21.080 12.906c-1.988 0-3.601 1.614-3.601 3.603 0 1.987 1.613 3.603 3.601 3.603 1.987 0 3.597-1.615 3.597-3.603s-1.61-3.603-3.597-3.603zM21.206 17.971c-0.833 0-1.505-0.673-1.505-1.505 0-0.831 0.673-1.507 1.505-1.507s1.505 0.675 1.505 1.507c-0.001 0.833-0.673 1.505-1.505 1.505zM12.098 8.42c-0.704 0-1.28-0.295-1.28-0.656s-0.576-0.657-1.28-0.657h-2.79c-0.704 0-1.28 0.295-1.28 0.657s-0.576 0.656-1.28 0.656h-0.491c-0.704 0-1.28 0.576-1.28 1.28v13.912c0 0.704 0.576 1.28 1.28 1.28h24.605c0.704 0 1.28-0.576 1.28-1.28v-13.912c0-0.704-0.576-1.28-1.28-1.28h-16.205zM10.818 12.083c0 0.677-0.576 1.231-1.28 1.231h-2.79c-0.704 0-1.28-0.554-1.28-1.231s0.576-1.231 1.28-1.231h2.79c0.704 0.001 1.28 0.554 1.28 1.231zM21.080 22.084c-3.078 0-5.575-2.496-5.575-5.575 0-3.078 2.498-5.576 5.575-5.576 3.081 0 5.576 2.499 5.576 5.576s-2.495 5.575-5.576 5.575z"></path>
</symbol>
<symbol id="icon-user" viewBox="0 0 32 32">
<path d="M20 9.333c0-2.209-1.791-4-4-4s-4 1.791-4 4v0c0 2.209 1.791 4 4 4s4-1.791 4-4v0zM22.667 9.333c0.004 0.091 0.007 0.197 0.007 0.305 0 3.682-2.985 6.667-6.667 6.667s-6.667-2.985-6.667-6.667c0-0.102 0.002-0.204 0.007-0.306l-0.001 0.014c0.16-3.554 3.081-6.375 6.66-6.375 3.575 0 6.492 2.814 6.659 6.347l0.001 0.015zM16 21.627c-6.32 0-10.533 2.24-10.667 5.040h21.333c-0.133-2.8-4.347-5.040-10.667-5.040zM2.667 26.8c0-5.067 6.16-7.84 13.333-7.84s13.333 2.787 13.333 7.84v2.533h-26.667v-2.533z"></path>
</symbol>
<symbol id="icon-vip1" viewBox="0 0 32 32">
<path d="M0.32 10.486c0 1.142 0.925 2.067 2.067 2.067s2.067-0.925 2.067-2.067-0.925-2.070-2.067-2.070c-1.142 0-2.067 0.928-2.067 2.070z"></path>
<path d="M13.891 5.19c0 1.142 0.925 2.067 2.067 2.067s2.067-0.925 2.067-2.067-0.925-2.067-2.067-2.067c-1.142 0-2.067 0.925-2.067 2.067z"></path>
<path d="M27.542 10.486c0 1.142 0.925 2.067 2.067 2.067s2.067-0.925 2.067-2.067-0.922-2.070-2.064-2.070c-1.142 0-2.070 0.928-2.070 2.070z"></path>
<path d="M3.712 13.050c0 0 3.062 3.226 6.122 2.067 3.062-1.155 5.050-3.472 6.125-6.701 1.075-3.226 0 20.438 0 20.438s-8.109 0.25-9.35-2.317c-1.242-2.566-0.25-3.558-0.25-4.384s-0.662-3.309-1.408-4.842c-0.746-1.53-1.904-4.179-1.904-4.179l0.666-0.083z"></path>
<path d="M28.992 13.29c0 0-1.19 2.63-1.952 4.154s-1.45 3.997-1.456 4.826 0.976 1.827-0.298 4.384c-1.267 2.547-9.376 2.208-9.376 2.208s-0.81-23.674 0.224-20.438c1.043 3.235 3.005 5.578 6.048 6.768 3.046 1.19 6.147-2.003 6.147-2.003l0.662 0.102z"></path>
<path d="M7.6 25.712c0.083-0.403 1.318-0.71 2.762-0.688s2.544 0.368 2.464 0.771-1.318 0.71-2.762 0.688c-1.328-0.022-2.387-0.317-2.464-0.688v-0.083z"></path>
</symbol>
<symbol id="icon-vip2" viewBox="0 0 32 32">
<path d="M27.277 4.426c-0.208-0.787-0.816-1.13-1.61-1.011-0.877 0.131-1.286 0.691-1.213 1.574 0.032 0.397 0.102 0.762-0.336 1.024-1.459 0.877-2.906 1.782-4.355 2.675-0.627-0.787-1.235-1.59-1.882-2.358-0.512-0.605-1.027-1.123-0.474-2.032 0.333-0.547-0.029-1.11-0.509-1.488-0.493-0.384-1.040-0.438-1.597-0.099-0.547 0.336-0.934 0.934-0.662 1.434 0.637 1.174-0.182 1.76-0.762 2.48-0.522 0.65-1.040 1.299-1.558 1.949v0 0c-1.738-0.563-3.034-1.872-4.589-2.739-0.365-0.202-0.211-0.515-0.192-0.816 0.058-0.944-0.41-1.526-1.331-1.629-0.797-0.090-1.376 0.32-1.52 1.126-0.163 0.912 0.227 1.584 1.171 1.731 0.592 0.093 0.781 0.403 0.928 0.915 0.477 1.683 1.027 3.347 1.478 5.040 0.16 0.602 0.365 0.896 1.030 0.88 2.147-0.051 4.301-0.054 6.448-0.077 2.362 0.022 4.726 0.016 7.088 0.090 0.707 0.022 0.902-0.333 1.056-0.88 0.454-1.642 0.918-3.28 1.389-4.918 0.141-0.496 0.269-0.938 0.938-1.078 0.909-0.195 1.302-0.886 1.062-1.792v0z"></path>
<path d="M5.958 23.674l-2.563-7.174h-3.075v0.717l4.918 12.298h1.536l5.072-12.195v-0.819h-3.174l-2.714 7.174z"></path>
<path d="M17.894 19.472h1.331v-2.973h-5.891v2.973h1.485v7.072h-1.485v2.973h6.147v-2.922l-1.587-0.102v-7.021z"></path>
<path d="M28.554 16.499h-6.304v13.014h2.922v-3.226l3.126-0.154c0 0 3.382-0.563 3.382-4.867s-3.126-4.768-3.126-4.768v0zM27.734 23.008h-2.41v-3.485h2.253c0 0 1.178 0.461 1.178 1.744s-1.021 1.741-1.021 1.741v0z"></path>
</symbol>
<symbol id="icon-vip3" viewBox="0 0 32 32">
<path d="M15.401 2.358c-0.657 0.233-1.068 0.65-1.282 1.295-0.215 0.663 0.012 1.528 0.528 1.994l0.245 0.221-0.638 0.994c-0.601 0.951-2.792 4.498-3.902 6.326l-0.516 0.847-0.221-0.233c-0.123-0.129-0.828-0.871-1.571-1.644-0.736-0.779-2.025-2.123-2.865-2.988l-1.522-1.577 0.172-0.264c0.282-0.417 0.356-0.657 0.356-1.154 0-0.552-0.184-1-0.558-1.374-0.748-0.748-2.006-0.755-2.743-0.012-0.129 0.123-0.301 0.368-0.393 0.546-0.147 0.276-0.172 0.393-0.172 0.841 0 0.429 0.025 0.577 0.147 0.828 0.301 0.601 0.871 1.025 1.503 1.11l0.282 0.043v9.027c0 10.075-0.025 9.467 0.436 10.406 0.485 0.988 1.436 1.743 2.546 2.025 0.46 0.123 0.724 0.123 10.762 0.123s10.302 0 10.762-0.123c1.104-0.282 2.061-1.043 2.546-2.025 0.46-0.939 0.436-0.331 0.436-10.406v-9.026l0.282-0.043c0.632-0.086 1.209-0.509 1.497-1.11 0.215-0.454 0.215-1.16-0.006-1.632-0.203-0.423-0.54-0.761-0.976-0.969-0.27-0.129-0.429-0.16-0.798-0.16-0.798 0-1.448 0.411-1.785 1.135-0.282 0.595-0.203 1.417 0.196 1.957l0.19 0.264-0.976 0.994c-0.81 0.822-1.681 1.736-5.050 5.27l-0.166 0.178-0.479-0.791c-1.295-2.123-3.19-5.203-3.847-6.228l-0.73-1.147 0.264-0.264c0.405-0.405 0.564-0.779 0.564-1.368 0.006-0.583-0.166-1.031-0.546-1.411-0.503-0.497-1.343-0.7-1.975-0.473zM10.916 20.114c0.411 0.19 0.73 0.503 0.951 0.926 0.141 0.27 0.166 0.399 0.166 0.841 0.006 0.613-0.141 0.976-0.546 1.387-0.405 0.405-0.767 0.546-1.38 0.546-0.429 0-0.577-0.025-0.828-0.147-0.387-0.196-0.761-0.571-0.957-0.957-0.209-0.436-0.215-1.227 0-1.626 0.215-0.405 0.368-0.595 0.632-0.779 0.601-0.411 1.319-0.484 1.963-0.19zM16.806 20.114c0.411 0.19 0.73 0.503 0.951 0.926 0.141 0.27 0.166 0.399 0.166 0.841 0.006 0.613-0.141 0.976-0.546 1.387-0.405 0.405-0.767 0.546-1.38 0.546-0.429 0-0.577-0.025-0.828-0.147-0.387-0.196-0.761-0.571-0.957-0.957-0.209-0.436-0.215-1.227 0-1.626 0.215-0.405 0.368-0.595 0.632-0.779 0.601-0.411 1.319-0.484 1.963-0.19zM22.697 20.114c0.411 0.19 0.73 0.503 0.951 0.926 0.141 0.27 0.166 0.399 0.166 0.841 0.006 0.613-0.141 0.976-0.546 1.387-0.405 0.405-0.767 0.546-1.38 0.546-0.626 0-0.963-0.135-1.362-0.534-0.429-0.423-0.571-0.779-0.571-1.399 0-0.429 0.025-0.571 0.147-0.798 0.215-0.405 0.368-0.595 0.632-0.779 0.602-0.411 1.319-0.484 1.964-0.19z"></path>
</symbol>
<symbol id="icon-vip4" viewBox="0 0 32 32">
<path d="M15.45 2.654c-0.903 0.293-1.508 1.043-1.673 2.087-0.095 0.63 0.032 1.304 0.363 1.877 0.172 0.299 0.611 0.725 0.91 0.878 0.242 0.127 0.248 0.083-0.204 1.298-0.757 2.029-1.667 3.944-2.449 5.121-0.541 0.821-1.444 1.737-1.928 1.959-0.522 0.242-0.903 0.274-1.4 0.121-1.374-0.433-3.067-2.049-4.797-4.6l-0.503-0.744 0.292-0.293c0.751-0.751 0.967-1.953 0.554-3.054-0.115-0.286-0.254-0.484-0.572-0.808-0.369-0.369-0.477-0.439-0.884-0.56-0.35-0.108-0.541-0.133-0.789-0.102-1.298 0.165-2.239 1.559-2.017 2.984 0.178 1.171 0.973 2.049 1.991 2.182 0.236 0.032 0.305 0.070 0.331 0.178 0.019 0.070 0.146 0.693 0.286 1.374 0.395 1.947 2.596 12.717 2.672 13.086l0.076 0.337h20.587l0.070-0.324c0.038-0.178 0.713-3.48 1.501-7.335 0.788-3.849 1.444-7.068 1.463-7.138 0.026-0.108 0.095-0.146 0.344-0.178 0.433-0.057 1.043-0.382 1.317-0.693 1.171-1.342 0.795-3.544-0.725-4.288-0.515-0.254-1.164-0.254-1.68 0-1.559 0.764-1.902 3.054-0.649 4.345l0.293 0.299-0.426 0.623c-1.642 2.431-3.137 3.939-4.542 4.594-0.579 0.274-1.151 0.28-1.66 0.032-1.005-0.496-1.966-1.711-3.041-3.868-0.509-1.005-1.412-3.181-1.699-4.072-0.108-0.331-0.108-0.35 0-0.413 1.018-0.592 1.527-1.641 1.362-2.818-0.172-1.196-1.044-2.1-2.087-2.15-0.248-0.012-0.528 0.013-0.687 0.064z"></path>
<path d="M5.824 27.949v1.463h20.358v-2.927h-20.358v1.463z"></path>
</symbol>
</defs>
</svg>
