<?xml version="1.0" standalone="no"?>
<!DOCTYPE svg PUBLIC "-//W3C//DTD SVG 20010904//EN"
 "http://www.w3.org/TR/2001/REC-SVG-20010904/DTD/svg10.dtd">
<svg version="1.0" xmlns="http://www.w3.org/2000/svg"
 width="1000.000000pt" height="1000.000000pt" viewBox="0 0 1000.000000 1000.000000"
 preserveAspectRatio="xMidYMid meet">
<metadata>
Created by potrace 1.14, written by Peter Selinger 2001-2017
</metadata>
<g transform="translate(0.000000,1000.000000) scale(0.100000,-0.100000)"
fill="#000000" stroke="none">
<path d="M4979 9646 c-2 -2 -17 -6 -34 -9 -78 -12 -128 -37 -356 -176 -134
-82 -252 -156 -261 -165 -10 -9 -21 -16 -25 -17 -19 -2 -181 -105 -176 -112 2
-4 0 -6 -5 -5 -12 4 -112 -54 -112 -64 0 -4 -5 -8 -10 -8 -19 0 -150 -83 -144
-91 3 -5 -3 -6 -12 -2 -13 5 -15 3 -9 -7 5 -9 4 -11 -4 -6 -15 10 -43 -13 -34
-27 3 -6 1 -7 -6 -3 -15 10 -183 -93 -174 -107 3 -6 1 -7 -6 -3 -6 4 -23 -1
-39 -11 -15 -10 -39 -25 -54 -33 -16 -7 -28 -17 -28 -22 0 -4 -6 -8 -12 -8 -7
-1 -51 -25 -98 -55 -47 -30 -106 -66 -132 -81 -26 -15 -45 -30 -43 -35 3 -4 0
-11 -6 -15 -8 -4 -9 -3 -5 4 4 7 4 12 1 12 -7 0 -65 -39 -75 -50 -3 -3 -12 -6
-20 -8 -8 -2 -17 -8 -18 -13 -2 -5 -10 -9 -18 -9 -8 0 -14 -4 -14 -9 0 -5 -9
-11 -21 -14 -13 -4 -18 -10 -13 -18 5 -8 3 -10 -5 -4 -8 4 -24 -1 -39 -12 -15
-10 -75 -47 -134 -83 -59 -35 -104 -68 -101 -74 3 -5 1 -6 -5 -2 -6 4 -24 -2
-39 -12 -76 -52 -110 -72 -121 -72 -7 0 -12 -4 -12 -8 0 -5 -16 -16 -36 -25
-19 -10 -32 -22 -29 -27 4 -6 -1 -7 -11 -3 -13 5 -15 3 -9 -7 5 -9 4 -11 -3
-6 -7 4 -32 -7 -56 -23 -25 -17 -47 -31 -49 -31 -5 0 -199 -120 -223 -137 -10
-8 -29 -19 -77 -45 -12 -7 -24 -16 -27 -19 -3 -3 -24 -17 -48 -31 -23 -13 -39
-28 -35 -33 5 -4 3 -5 -4 -1 -11 6 -80 -32 -111 -61 -7 -7 -19 -13 -26 -13 -7
0 -21 -9 -31 -20 -10 -11 -22 -17 -26 -14 -5 3 -9 2 -9 -3 0 -4 -25 -21 -54
-37 -30 -16 -53 -33 -51 -36 2 -4 -2 -7 -9 -7 -6 0 -69 -35 -139 -79 -70 -43
-135 -83 -145 -89 -121 -70 -240 -150 -235 -158 3 -6 1 -7 -5 -3 -11 6 -114
-50 -120 -66 -2 -4 -9 -8 -15 -8 -7 0 -50 -25 -97 -56 -47 -31 -103 -66 -125
-78 -85 -49 -120 -70 -125 -77 -3 -3 -20 -14 -38 -23 -42 -21 -122 -96 -122
-113 0 -7 -4 -13 -9 -13 -13 0 -60 -101 -67 -147 -15 -85 -10 -167 13 -223 4
-8 7 -17 7 -20 1 -3 13 -27 26 -54 35 -69 121 -142 205 -177 62 -24 81 -27
160 -25 59 2 106 9 135 21 58 24 190 105 190 117 0 5 4 7 9 3 5 -3 16 2 24 10
9 8 18 15 21 15 13 0 145 88 141 94 -3 3 -2 4 1 1 6 -4 92 41 104 55 3 3 16
11 30 18 24 11 133 78 270 165 99 63 102 65 144 89 21 13 46 28 55 33 9 6 48
30 88 53 40 24 77 50 84 58 6 7 15 11 20 8 5 -3 9 -1 9 4 0 4 19 18 43 31 23
12 56 31 72 41 17 11 42 26 58 35 15 9 27 21 27 27 0 6 3 8 7 5 5 -6 71 28 83
43 3 4 13 9 23 13 10 4 15 11 12 17 -3 5 0 7 8 4 8 -3 21 2 30 10 9 9 18 16
21 16 5 0 77 43 162 97 10 7 36 22 57 33 20 11 37 25 37 31 0 6 4 8 9 5 5 -3
14 1 21 9 7 8 19 15 27 15 8 0 11 4 8 10 -3 6 1 7 9 4 9 -3 16 -1 16 5 0 6 7
11 15 11 8 0 15 5 15 10 0 6 5 10 10 10 6 0 29 12 53 27 58 38 79 51 97 60 8
4 58 34 111 67 112 71 113 72 206 128 39 23 69 46 66 50 -2 5 0 7 5 6 12 -4
132 63 132 74 0 4 5 8 11 8 15 0 143 80 147 92 2 4 8 8 13 8 16 0 229 132 229
142 0 5 4 7 8 4 5 -3 20 2 33 12 13 9 71 46 129 81 58 35 107 66 110 70 3 3
26 17 53 31 26 13 47 27 47 30 0 3 14 11 30 18 17 8 28 18 25 23 -4 5 0 6 8 3
8 -3 20 2 27 11 7 8 17 15 22 15 5 0 58 32 119 70 60 39 112 70 114 70 3 0 45
27 94 59 49 33 92 57 95 53 3 -3 6 0 6 6 0 7 5 12 11 12 6 0 30 13 53 29 50
34 28 42 220 -77 74 -46 137 -83 140 -83 3 1 14 -6 24 -15 16 -15 351 -224
359 -224 2 0 41 -24 86 -52 100 -64 91 -58 252 -157 72 -44 135 -81 140 -83 6
-1 19 -10 30 -20 11 -9 24 -17 29 -17 5 0 12 -3 15 -8 7 -10 371 -234 385
-236 5 -1 18 -10 30 -21 35 -30 296 -186 312 -186 8 0 12 -4 9 -10 -3 -5 6
-12 20 -16 14 -3 25 -11 25 -16 0 -6 7 -7 16 -4 8 3 12 2 9 -4 -3 -6 5 -14 20
-20 14 -5 31 -14 38 -20 28 -23 87 -59 87 -52 0 4 4 2 8 -4 8 -13 140 -94 152
-94 5 0 10 -4 12 -8 4 -11 108 -73 108 -65 0 4 6 -1 13 -12 9 -12 19 -15 28
-10 8 5 11 5 7 0 -6 -6 53 -55 67 -55 2 0 34 -20 72 -45 37 -25 73 -45 80 -45
6 0 13 -4 15 -8 2 -4 21 -18 43 -31 22 -13 63 -39 92 -58 28 -18 56 -33 62
-33 6 0 11 -4 11 -9 0 -5 8 -11 18 -15 9 -3 67 -37 127 -75 172 -109 276 -171
286 -171 5 0 9 -3 9 -7 0 -12 61 -44 71 -37 5 3 8 1 7 -5 -3 -10 184 -131 202
-131 6 0 10 -4 10 -10 0 -5 7 -10 15 -10 8 0 15 -4 15 -10 0 -5 4 -10 9 -10 5
0 38 -18 72 -40 126 -78 153 -93 166 -93 7 0 10 -4 8 -8 -6 -8 39 -30 109 -53
88 -30 228 -13 313 36 158 93 238 279 197 457 -6 29 -16 56 -20 60 -5 3 -11
15 -12 26 -2 11 -13 33 -24 50 -30 43 -117 125 -133 125 -7 0 -15 3 -17 8 -4
9 -107 72 -119 72 -5 0 -9 3 -9 8 0 12 -61 42 -72 35 -6 -3 -8 -2 -5 4 4 5 -6
16 -21 24 -15 8 -31 17 -37 22 -21 15 -84 56 -225 141 -183 112 -352 216 -388
238 -46 30 -82 48 -88 48 -3 -1 -11 5 -17 14 -7 8 -18 16 -26 18 -8 2 -21 9
-30 16 -40 34 -193 122 -202 117 -5 -4 -8 -1 -7 5 2 6 -16 22 -39 34 -24 13
-50 29 -58 36 -21 17 -76 49 -97 56 -10 4 -18 10 -18 14 0 4 -8 10 -17 14 -10
3 -45 24 -78 46 -33 22 -68 43 -77 46 -17 6 -18 44 -18 612 0 596 0 605 -21
647 -13 27 -36 51 -59 64 -43 24 -120 35 -120 17 0 -7 -3 -7 -8 -1 -8 12 -440
13 -459 2 -6 -4 -14 -4 -16 0 -3 5 -67 8 -144 7 -104 -1 -145 -5 -168 -16 -42
-22 -79 -64 -70 -79 5 -7 4 -10 -3 -5 -19 12 -23 -49 -20 -312 2 -138 1 -252
-2 -252 -3 0 -29 16 -58 35 -28 20 -52 33 -52 30 0 -3 -10 3 -22 15 -12 11
-26 20 -31 20 -4 0 -15 7 -24 16 -9 8 -22 13 -30 10 -8 -3 -11 -1 -8 4 3 5 -7
15 -22 22 -15 7 -30 15 -33 18 -11 11 -172 110 -179 110 -5 0 -14 7 -21 15 -7
9 -15 13 -18 11 -2 -3 -11 2 -19 10 -8 8 -19 12 -24 9 -5 -4 -9 -2 -9 4 0 9
-89 69 -100 67 -3 -1 -15 8 -27 19 -12 11 -43 31 -70 45 -26 14 -54 31 -61 38
-8 7 -28 20 -45 29 -18 9 -51 29 -75 45 -24 16 -48 26 -55 22 -6 -4 -9 -3 -4
1 7 9 -73 65 -93 65 -5 0 -10 5 -10 10 0 6 -7 10 -15 10 -8 0 -15 5 -15 10 0
6 -5 10 -10 10 -6 0 -23 8 -38 19 -15 10 -70 44 -122 76 -52 32 -112 69 -132
82 -21 14 -42 22 -49 17 -7 -4 -10 -3 -6 3 10 16 -71 46 -129 48 -27 1 -55 4
-61 8 -5 4 -12 5 -14 3z m-174 -205 c3 -5 2 -12 -3 -15 -5 -3 -9 1 -9 9 0 17
3 19 12 6z m162 -216 c0 -8 -4 -12 -9 -9 -5 3 -6 10 -3 15 9 13 12 11 12 -6z
m480 -10 c0 -8 -4 -12 -9 -9 -5 3 -6 10 -3 15 9 13 12 11 12 -6z m1924 -92
c13 -16 12 -17 -3 -4 -10 7 -18 15 -18 17 0 8 8 3 21 -13z m-3387 -81 c3 -5
-1 -9 -9 -9 -8 0 -12 4 -9 9 3 4 7 8 9 8 2 0 6 -4 9 -8z m2100 -88 c3 -8 2
-12 -4 -9 -6 3 -10 10 -10 16 0 14 7 11 14 -7z m-1759 -43 c3 -5 2 -12 -3 -15
-5 -3 -9 1 -9 9 0 17 3 19 12 6z m3229 -29 c3 -5 -1 -9 -9 -9 -8 0 -12 4 -9 9
3 4 7 8 9 8 2 0 6 -4 9 -8z m-1789 -21 c3 -5 2 -12 -3 -15 -5 -3 -9 1 -9 9 0
17 3 19 12 6z m-2451 -299 c3 -5 -1 -9 -9 -9 -8 0 -12 4 -9 9 3 4 7 8 9 8 2 0
6 -4 9 -8z m47 -89 c13 -16 12 -17 -3 -4 -10 7 -18 15 -18 17 0 8 8 3 21 -13z
m3053 9 c3 -5 -1 -9 -9 -9 -8 0 -12 4 -9 9 3 4 7 8 9 8 2 0 6 -4 9 -8z m-2490
-248 c3 -8 2 -12 -4 -9 -6 3 -10 10 -10 16 0 14 7 11 14 -7z m-557 -19 c0 -8
-4 -12 -9 -9 -5 3 -6 10 -3 15 9 13 12 11 12 -6z m4158 6 c3 -5 2 -12 -3 -15
-5 -3 -9 1 -9 9 0 17 3 19 12 6z m-291 -139 c3 -5 -1 -9 -9 -9 -8 0 -12 4 -9
9 3 4 7 8 9 8 2 0 6 -4 9 -8z m-749 -162 c3 -5 1 -10 -4 -10 -6 0 -11 5 -11
10 0 6 2 10 4 10 3 0 8 -4 11 -10z m1200 -89 c3 -5 2 -12 -3 -15 -5 -3 -9 1
-9 9 0 17 3 19 12 6z m-5039 -71 c0 -12 -4 -16 -9 -11 -5 5 -6 14 -3 20 10 15
12 14 12 -9z m4864 -156 c0 -8 -19 -13 -24 -6 -3 5 1 9 9 9 8 0 15 -2 15 -3z
m177 -99 c0 -8 -4 -12 -9 -9 -5 3 -6 10 -3 15 9 13 12 11 12 -6z m79 -65 c0
-12 -4 -16 -9 -11 -5 5 -6 14 -3 20 10 15 12 14 12 -9z m-6342 -318 c3 -5 -1
-9 -9 -9 -8 0 -12 4 -9 9 3 4 7 8 9 8 2 0 6 -4 9 -8z m-617 -137 c0 -8 -4 -12
-9 -9 -5 3 -6 10 -3 15 9 13 12 11 12 -6z m7680 0 c0 -8 -4 -12 -9 -9 -5 3 -6
10 -3 15 9 13 12 11 12 -6z m640 -50 c0 -8 -4 -12 -9 -9 -5 3 -6 10 -3 15 9
13 12 11 12 -6z m-8484 -530 c-3 -9 -8 -14 -10 -11 -3 3 -2 9 2 15 9 16 15 13
8 -4z"/>
<path d="M4730 7211 c-79 -24 -140 -80 -178 -161 l-25 -54 0 -1142 0 -1143 32
-65 c54 -110 154 -165 280 -153 94 8 166 55 217 143 l29 49 3 1149 c3 1310 9
1210 -82 1301 -34 34 -68 57 -100 68 -51 18 -132 21 -176 8z"/>
<path d="M5824 7205 c-97 -22 -172 -81 -203 -160 -30 -77 -15 -186 33 -250
121 -158 430 -151 538 13 69 103 45 266 -48 337 -79 60 -213 85 -320 60z"/>
<path d="M7025 7001 c-68 -18 -126 -61 -168 -126 -34 -52 -40 -92 -41 -255
l-1 -135 -38 -3 c-88 -6 -181 -79 -205 -161 -49 -161 58 -311 229 -320 14 -1
16 -51 15 -503 -1 -429 1 -517 16 -601 37 -215 141 -338 328 -390 212 -60 536
-20 627 75 49 52 67 96 66 163 0 92 -45 164 -128 208 -31 16 -61 21 -136 23
-109 2 -144 15 -181 66 l-23 33 -3 463 -3 462 131 0 c155 0 131 -2 184 14 177
53 227 283 89 407 -58 52 -95 61 -258 62 l-143 1 -4 161 c-5 172 -9 191 -64
260 -62 79 -191 122 -289 96z"/>
<path d="M2926 6499 c-97 -20 -120 -27 -211 -69 -183 -83 -355 -252 -451 -442
-75 -147 -116 -354 -108 -543 5 -135 8 -158 36 -259 87 -324 342 -583 663
-674 147 -42 315 -55 475 -38 164 18 352 90 483 187 108 79 147 163 122 262
-27 108 -103 168 -213 169 -60 1 -80 -7 -192 -78 -54 -34 -143 -72 -187 -80
-13 -2 -35 -6 -50 -9 -39 -8 -161 -7 -208 1 -169 27 -308 153 -359 323 l-15
50 592 3 c584 3 593 3 632 24 97 52 138 126 141 251 8 328 -190 673 -476 830
-184 101 -453 138 -674 92z m305 -444 c103 -26 180 -85 234 -176 37 -63 63
-138 67 -189 l3 -35 -412 -1 c-467 -1 -425 -10 -397 87 70 241 282 373 505
314z"/>
<path d="M5848 6495 c-90 -23 -161 -87 -194 -176 -14 -39 -16 -130 -17 -819 0
-821 0 -817 46 -885 130 -189 418 -158 497 53 20 53 20 74 18 845 -3 764 -4
793 -23 832 -60 120 -197 184 -327 150z"/>
<path d="M4774 4059 c-5 -9 4 -33 49 -129 19 -41 71 -156 115 -255 44 -99 120
-270 170 -380 49 -110 149 -333 222 -495 73 -162 140 -313 150 -335 10 -22 59
-132 110 -245 50 -113 121 -270 157 -350 36 -80 77 -172 93 -205 15 -33 51
-114 80 -180 29 -66 56 -124 60 -129 5 -4 43 -9 86 -10 l77 -1 27 60 c15 33
39 85 53 115 13 30 136 303 272 605 136 303 258 575 272 605 14 30 53 118 88
195 34 77 74 165 88 195 14 30 95 210 180 400 85 190 171 381 191 424 57 124
60 119 -63 120 l-104 1 -38 -80 c-41 -90 -109 -239 -464 -1030 -135 -302 -256
-570 -267 -595 -11 -25 -60 -133 -108 -240 -167 -375 -202 -450 -209 -450 -3
0 -42 80 -85 178 -44 97 -96 213 -116 257 -21 44 -52 114 -70 155 -31 71 -51
118 -98 220 -11 25 -50 113 -87 195 -37 83 -78 175 -92 205 -14 30 -43 96 -65
145 -21 50 -48 108 -58 130 -10 22 -40 87 -65 145 -52 116 -76 170 -110 245
-12 28 -69 154 -125 280 -57 127 -104 231 -106 233 -5 7 -206 7 -210 1z"/>
<path d="M2835 4051 c-3 -2 -5 -602 -5 -1332 0 -1052 3 -1328 13 -1331 10 -4
1698 -3 1720 1 4 0 6 42 5 93 l-3 92 -765 0 -764 1 -1 510 c-1 281 1 516 3
523 3 9 161 12 746 12 l742 0 1 95 1 95 -747 2 -746 3 0 515 c-1 283 1 520 2
526 3 7 228 11 751 11 411 1 753 2 760 2 10 1 12 24 10 94 l-3 92 -858 0
c-472 1 -860 -1 -862 -4z"/>
<path d="M1655 1041 c-31 -13 -58 -48 -51 -66 3 -9 2 -13 -4 -10 -6 4 -10 -8
-10 -29 0 -27 8 -44 35 -71 l36 -35 1067 0 1067 0 10 -22 c8 -18 18 -23 50
-23 28 0 40 4 41 15 3 33 5 34 20 8 21 -40 84 -36 84 4 0 17 4 19 28 13 33 -8
53 -25 30 -25 -9 0 -20 5 -23 10 -4 6 -11 8 -16 4 -15 -9 10 -34 35 -34 31 0
50 15 42 35 -4 11 -2 15 6 13 7 -3 14 -10 14 -16 1 -7 2 -16 3 -22 2 -22 21
-9 21 15 0 14 5 25 10 25 6 0 10 -7 10 -15 0 -17 36 -39 50 -30 6 3 10 1 10
-5 0 -8 -10 -9 -30 -5 -18 4 -30 3 -30 -4 0 -17 33 -28 60 -22 20 6 26 14 28
44 4 42 22 51 22 11 0 -31 23 -28 28 4 5 31 32 28 32 -4 0 -31 23 -28 28 4 2
12 8 22 13 22 6 0 8 -4 4 -9 -8 -14 24 -41 49 -41 13 0 30 7 37 16 12 15 10
16 -18 10 -18 -4 -34 -3 -38 3 -4 7 4 11 19 11 13 0 30 2 38 5 7 3 17 -5 23
-17 8 -18 18 -23 50 -23 35 0 40 3 39 23 -1 20 3 23 30 20 23 -2 32 -9 34 -24
5 -32 73 -29 87 4 12 28 23 28 34 -1 7 -17 4 -26 -11 -38 -19 -15 -19 -16 -3
-23 23 -8 41 8 55 50 11 33 14 34 61 34 45 0 49 -2 49 -24 0 -14 10 -36 23
-50 52 -59 187 -23 187 49 0 25 3 26 43 23 34 -2 42 -7 42 -22 0 -11 6 -21 13
-23 7 -3 12 5 12 21 0 16 6 26 15 26 9 0 15 -10 15 -26 0 -31 23 -28 28 4 4
28 38 29 45 2 6 -25 29 -34 62 -26 37 9 32 29 -5 21 -19 -4 -30 -3 -30 4 0 6
11 11 24 11 13 0 32 3 42 7 11 4 15 3 11 -4 -10 -16 20 -43 47 -43 13 0 30 7
37 16 12 15 10 16 -18 10 -18 -4 -34 -3 -38 3 -4 7 4 11 19 11 13 0 31 3 40 6
13 5 16 -2 16 -34 0 -23 5 -44 10 -47 8 -5 14 12 12 36 -1 3 12 4 27 1 22 -3
30 2 41 25 l14 28 4 -28 c4 -32 25 -31 30 1 5 30 22 28 22 -3 0 -31 18 -33 29
-3 l8 22 12 -22 c16 -30 35 -28 27 3 -6 23 -4 25 31 25 30 0 40 -5 48 -22 13
-29 69 -38 79 -12 9 23 0 30 -18 15 -15 -13 -36 -7 -36 10 0 5 16 9 35 9 19 0
35 -4 35 -9 0 -18 32 -41 56 -41 17 0 28 8 37 26 l12 27 5 -23 c8 -33 30 -38
30 -6 0 16 6 26 15 26 9 0 15 -10 15 -26 0 -16 5 -24 13 -21 6 2 12 12 12 22
0 27 23 30 27 4 4 -32 28 -37 28 -5 l0 26 1075 2 1075 3 26 26 c28 29 48 119
25 119 -6 0 -10 5 -9 12 2 6 -12 22 -31 35 l-34 23 -3326 -1 c-1829 0 -3335
-4 -3346 -8z m112 -136 c0 -8 -4 -12 -9 -9 -5 3 -6 10 -3 15 9 13 12 11 12 -6z
m727 -23 c3 -5 -1 -9 -9 -9 -8 0 -12 4 -9 9 3 4 7 8 9 8 2 0 6 -4 9 -8z m320
0 c3 -5 -1 -9 -9 -9 -8 0 -12 4 -9 9 3 4 7 8 9 8 2 0 6 -4 9 -8z m3840 0 c3
-5 -1 -9 -9 -9 -8 0 -12 4 -9 9 3 4 7 8 9 8 2 0 6 -4 9 -8z m960 0 c3 -5 -1
-9 -9 -9 -8 0 -12 4 -9 9 3 4 7 8 9 8 2 0 6 -4 9 -8z m320 0 c3 -5 -1 -9 -9
-9 -8 0 -12 4 -9 9 3 4 7 8 9 8 2 0 6 -4 9 -8z m-4070 -66 c-3 -8 -12 -12 -20
-9 -21 8 -17 23 6 23 13 0 18 -5 14 -14z m356 5 c0 -18 -18 -21 -30 -6 -10 13
-9 15 9 15 11 0 21 -4 21 -9z m320 -4 c0 -8 -7 -14 -15 -14 -8 0 -15 6 -15 14
0 7 7 13 15 13 8 0 15 -6 15 -13z m158 1 c-6 -18 -25 -20 -31 -3 -5 10 0 15
14 15 12 0 19 -5 17 -12z m902 -3 c-12 -15 -30 -12 -30 6 0 5 10 9 21 9 18 0
19 -2 9 -15z m418 3 c-3 -7 -11 -13 -18 -13 -7 0 -15 6 -17 13 -3 7 4 12 17
12 13 0 20 -5 18 -12z m-2033 -8 c-3 -5 -12 -10 -20 -10 -8 0 -17 5 -20 10 -4
6 5 10 20 10 15 0 24 -4 20 -10z"/>
<path d="M5807 803 c-12 -11 -8 -23 8 -23 8 0 15 7 15 15 0 16 -12 20 -23 8z"/>
<path d="M5154 675 c-7 -18 3 -35 22 -35 20 0 30 30 13 41 -20 12 -29 11 -35
-6z"/>
<path d="M5010 521 c0 -132 3 -162 16 -175 20 -21 74 -21 74 -1 0 8 -9 15 -20
15 -31 0 -36 26 -35 178 0 129 -1 142 -17 142 -16 0 -18 -14 -18 -159z"/>
<path d="M5289 631 c-1 -9 -1 -26 -2 -38 0 -12 -3 -20 -8 -18 -15 10 -21 -17
-6 -33 10 -12 14 -40 14 -90 1 -41 6 -84 13 -97 14 -26 61 -40 72 -22 12 19 9
27 -11 27 -10 0 -23 6 -29 13 -14 17 -12 167 2 168 6 1 17 2 25 3 27 2 22 25
-6 28 -23 2 -28 8 -29 33 -2 42 -2 42 -19 42 -8 0 -16 -7 -16 -16z"/>
<path d="M3500 567 c0 -12 46 -166 62 -209 6 -16 18 -28 28 -28 14 0 25 21 46
89 17 52 32 85 36 78 4 -7 19 -47 34 -89 27 -82 33 -91 51 -80 9 6 83 215 83
235 0 4 -9 7 -20 7 -14 0 -22 -11 -30 -42 -24 -92 -34 -123 -39 -130 -3 -4
-19 33 -36 82 -39 119 -54 120 -90 8 -15 -46 -30 -86 -34 -90 -3 -4 -17 32
-30 81 -17 68 -28 90 -42 94 -10 3 -19 0 -19 -6z"/>
<path d="M3864 569 c-5 -8 13 -73 61 -226 3 -7 13 -13 24 -13 15 0 25 17 46
83 15 45 29 84 31 86 4 4 16 -23 45 -106 16 -47 26 -63 40 -63 11 0 19 2 19 4
0 2 16 55 35 117 33 105 36 138 9 121 -6 -4 -24 -47 -39 -97 l-28 -90 -30 92
c-42 125 -56 127 -92 12 -16 -49 -32 -89 -36 -89 -4 0 -17 38 -29 84 -21 79
-41 109 -56 85z"/>
<path d="M4539 573 c-11 -2 -24 -32 -39 -86 -13 -45 -26 -85 -30 -90 -3 -4
-19 33 -35 83 -39 121 -55 121 -91 5 -14 -47 -30 -85 -34 -85 -4 0 -18 38 -31
85 -20 72 -27 85 -44 85 -20 0 -20 -4 18 -124 50 -155 63 -158 105 -24 32 100
28 100 62 -2 25 -76 33 -90 50 -90 14 0 25 21 49 98 33 109 45 153 40 151 -2
-1 -11 -3 -20 -6z"/>
<path d="M4813 572 c-78 -12 -108 -154 -45 -217 33 -33 96 -37 140 -9 18 12
21 18 12 29 -10 12 -15 12 -36 -1 -46 -31 -114 3 -114 56 0 6 37 10 84 10 l83
0 -3 26 c-8 75 -56 117 -121 106z m59 -44 c9 -7 18 -22 20 -33 3 -18 -3 -20
-60 -23 -62 -3 -64 -3 -57 20 11 36 25 48 54 48 15 0 34 -6 43 -12z"/>
<path d="M5525 573 c-62 -11 -89 -52 -88 -133 0 -49 23 -95 54 -105 59 -20
154 10 129 40 -10 12 -15 12 -36 -1 -46 -31 -114 3 -114 56 0 6 37 10 84 10
75 0 84 2 81 18 -2 9 -4 25 -4 34 -1 22 -46 74 -68 80 -10 2 -27 2 -38 1z m47
-45 c9 -7 19 -23 23 -35 6 -22 4 -23 -59 -23 -62 0 -65 1 -61 23 6 27 31 47
60 47 12 0 28 -6 37 -12z"/>
<path d="M5683 572 c-10 -6 -6 -26 15 -83 16 -40 36 -95 46 -120 14 -38 21
-46 36 -42 11 3 20 10 20 17 0 6 18 58 40 116 22 58 40 106 40 106 0 1 -8 4
-19 7 -16 4 -24 -10 -53 -96 l-35 -100 -28 89 c-29 95 -43 118 -62 106z"/>
<path d="M6091 564 c-37 -16 -44 -51 -8 -39 74 23 117 12 117 -30 0 -23 -4
-25 -45 -25 -103 0 -148 -73 -81 -130 20 -15 92 -15 112 1 10 8 14 8 14 0 0
-6 9 -11 20 -11 19 0 20 7 20 94 0 75 -4 98 -18 116 -23 29 -90 41 -131 24z
m107 -156 c-2 -25 -9 -35 -30 -42 -58 -20 -115 29 -72 61 10 7 37 13 62 13 43
0 43 0 40 -32z"/>
<path d="M6324 570 c-33 -12 -11 -25 50 -30 l65 -5 -64 -85 c-60 -80 -82 -119
-67 -121 35 -4 166 -3 174 2 25 15 -7 29 -68 29 l-64 0 70 93 c73 98 81 116
53 118 -70 4 -136 3 -149 -1z"/>
<path d="M5159 568 c0 -2 -2 -54 -2 -116 -1 -76 2 -117 10 -123 20 -17 26 11
27 128 1 102 0 113 -16 113 -10 0 -18 -1 -19 -2z"/>
<path d="M4614 375 c-15 -11 -16 -15 -5 -29 21 -25 51 -20 51 8 0 29 -22 39
-46 21z"/>
<path d="M5935 377 c-23 -17 -14 -47 15 -47 26 0 37 27 18 46 -12 12 -17 12
-33 1z"/>
</g>
</svg>
