<?xml version="1.0" encoding="utf-8"?>
<!-- Generator: Adobe Illustrator 23.0.0, SVG Export Plug-In . SVG Version: 6.00 Build 0)  -->
<svg version="1.1" id="Layer_1" xmlns="http://www.w3.org/2000/svg" xmlns:xlink="http://www.w3.org/1999/xlink" x="0px" y="0px"
	 viewBox="0 0 500 357.2" style="enable-background:new 0 0 500 357.2;" xml:space="preserve">
<style type="text/css">
	.st0{fill:#EBEBEB;}
	.st1{fill:#F5F5F5;}
	.st2{fill:#E0E0E0;}
	.st3{fill:#E6E6E6;}
	.st4{fill:#263238;}
	.st5{fill:#407BFF;}
	.st6{opacity:0.6;fill:#FFFFFF;enable-background:new    ;}
	.st7{opacity:0.4;fill:#FFFFFF;enable-background:new    ;}
	.st8{opacity:0.2;fill:#FFFFFF;enable-background:new    ;}
	.st9{opacity:0.2;enable-background:new    ;}
	.st10{opacity:0.7;fill:#FFFFFF;enable-background:new    ;}
	.st11{opacity:0.3;fill:#FFFFFF;enable-background:new    ;}
	.st12{opacity:0.5;fill:#FFFFFF;enable-background:new    ;}
	.st13{fill:#EBC0BB;}
	.st14{fill:#EEC1BB;}
	.st15{fill:#FFFFFF;}
	.st16{fill:#ED847E;}
	.st17{opacity:0.1;enable-background:new    ;}
	.st18{fill:#F90000;}
</style>
<g id="freepik--background-complete--inject-3">
	<rect y="338.4" class="st0" width="500" height="0.3"/>
	<rect x="416.8" y="354.5" class="st0" width="33.1" height="0.3"/>
	<rect x="322.5" y="357.2" class="st0" width="8.7" height="0.3"/>
	<rect x="396.6" y="345.2" class="st0" width="19.2" height="0.3"/>
	<rect x="52.5" y="346.9" class="st0" width="43.2" height="0.3"/>
	<rect x="104.6" y="346.9" class="st0" width="6.3" height="0.3"/>
	<rect x="131.5" y="351.1" class="st0" width="93.7" height="0.3"/>
	<path class="st0" d="M237,293.8H43.9c-3.1,0-5.7-2.6-5.7-5.7V16.7c0-3.1,2.6-5.7,5.7-5.7H237c3.2,0,5.7,2.6,5.7,5.7c0,0,0,0,0,0
		v271.4C242.7,291.2,240.2,293.8,237,293.8z M43.9,11.2c-3,0-5.5,2.4-5.5,5.5v271.4c0,3,2.4,5.5,5.5,5.5H237c3,0,5.5-2.4,5.5-5.5
		V16.7c0-3-2.4-5.5-5.5-5.5H43.9z"/>
	<path class="st0" d="M453.3,293.8H260.2c-3.2,0-5.7-2.6-5.7-5.7V16.7c0-3.1,2.6-5.7,5.7-5.7h193.1c3.1,0,5.7,2.5,5.7,5.7v271.4
		C459,291.2,456.5,293.8,453.3,293.8z M260.2,11.2c-3,0-5.5,2.4-5.5,5.5v271.4c0,3,2.4,5.5,5.5,5.5h193.1c3,0,5.5-2.4,5.5-5.5V16.7
		c0-3-2.4-5.5-5.5-5.5H260.2z"/>
	<path class="st1" d="M298.8,50.2c0-2.7-2.2-4.8-4.8-4.8c-0.5,0-0.9,0.1-1.4,0.2c0.8-5.6-3-10.8-8.6-11.6c-0.5-0.1-1-0.1-1.5-0.1
		c-0.6,0-1.3,0.1-1.9,0.2c-2.5-4.2-8-5.6-12.3-3.1c-2.7,1.6-4.3,4.5-4.3,7.6h-0.1c-4.6,0-8.2,3.7-8.2,8.2c0,4.6,3.7,8.2,8.2,8.2l0,0
		h30.3C296.7,54.9,298.8,52.8,298.8,50.2z"/>
	<path class="st1" d="M230.7,75c0-1.3-1.1-2.4-2.4-2.4l0,0c-0.2,0-0.5,0-0.7,0.1c0-0.2,0-0.5,0.1-0.7c0-2.8-2.3-5.1-5.1-5.1
		c0,0,0,0,0,0c-0.3,0-0.6,0-0.9,0.1c-1.3-2.1-4-2.8-6.1-1.5c-1.3,0.8-2.1,2.2-2.1,3.8h-0.1c-2.3,0-4.1,1.8-4.1,4.1
		c0,2.3,1.8,4.1,4.1,4.1h15.1C229.7,77.4,230.7,76.3,230.7,75z"/>
	<path class="st1" d="M94.4,156.2c0-1.3-1-2.4-2.4-2.4c-0.2,0-0.5,0-0.7,0.1c0-0.2,0-0.5,0-0.7c0-2.8-2.3-5.1-5.1-5.1
		c-0.3,0-0.6,0-0.9,0.1c-1.3-2.1-4.1-2.7-6.2-1.4c-1.3,0.8-2,2.2-2.1,3.7h-0.1c-2.3,0-4.1,1.8-4.1,4.1c0,2.3,1.8,4.1,4.1,4.1H92
		C93.3,158.6,94.4,157.6,94.4,156.2z"/>
	<path class="st1" d="M420.6,157.2c0-1.3-1.1-2.4-2.4-2.4l0,0c-0.2,0-0.5,0-0.7,0.1c0-0.2,0-0.5,0-0.8c0-2.8-2.3-5.1-5.1-5.1
		c-0.3,0-0.6,0-1,0.1c-1.3-2.1-4-2.8-6.1-1.5c-1.3,0.8-2.1,2.2-2.2,3.8h-0.1c-2.3,0-4.1,1.8-4.1,4.1c0,2.3,1.8,4.1,4.1,4.1h15.1
		C419.5,159.6,420.6,158.5,420.6,157.2z"/>
	<path class="st1" d="M166.3,50.4c0-1.7-1.4-3.2-3.2-3.2c0,0,0,0,0,0c-0.3,0-0.6,0-0.9,0.1c0.1-0.3,0.1-0.7,0.1-1
		c0-3.7-3-6.7-6.7-6.7c0,0,0,0,0,0c-0.4,0-0.8,0-1.2,0.1c-1.7-2.8-5.3-3.6-8-2c-1.7,1.1-2.8,2.9-2.8,5h-0.1c-3,0-5.4,2.4-5.4,5.4
		s2.4,5.4,5.4,5.4h19.8C164.9,53.5,166.3,52.1,166.3,50.4z"/>
	<path class="st1" d="M403,126.4c0.2-0.6,0.3-1.2,0.3-1.9c0.2-3.9,4-3.3,7.1-3.8c2.5-0.4-4.1-6.6,0.9-8.7c1-0.3,1.8-0.9,2.4-1.7
		c0.5-1.3,0.1-2.7-1.1-3.5c-1.1-0.7-2.5-1-3.8-0.9c-0.8-1-0.1-2.5,0.6-3.5s1.8-2.2,1.5-3.4c-0.5-1.9-3.1-2-5-1.6
		c-0.7-1.1-0.7-2.6-1-3.9s-1.4-2.6-2.7-2.5s-2,1.6-3.2,1.9c-1.4,0.3-2.6-0.9-3.8-1.9s-3.1-1.5-3.8-0.3c-0.5,0.7-0.2,1.8-0.7,2.5
		c-0.8,1.3-2.8,0.5-4-0.4s-3.2-1.7-4-0.5c-0.2,0.4-0.4,0.8-0.5,1.3c-0.6,1.7-2.4,2.5-3.8,3.6s-2.5,3.2-1.3,4.5
		c0.6,0.6,1.6,0.9,1.9,1.7c0.4,1-0.7,1.9-1.5,2.6c-1.4,1.2-1.6,4.7,0.2,5.6c0.8,0.4,1.9,0.5,2.1,1.4s-0.6,1.3-1.1,1.9
		c-1.2,1.6-1,3.8,0.6,5.1c0.2,0.1,0.3,0.2,0.5,0.3c0.4,0.2,1,0.4,1.1,0.8c0.1,0.3,0,0.7-0.1,1c-0.2,0.6-0.2,1.3-0.2,2
		c0,0.2,0.1,0.4,0.2,0.6c0.2,0.1,0.4,0.2,0.6,0.2c2.6,0.1,3.9-0.8,5.5,1.5c0.1,0.2,0.3,0.4,0.5,0.6c0.2,0.1,0.5,0.2,0.7,0.2
		c1.8,0.1,3-1,4.6-1.2c2.3-0.3,2.8,0.9,4.8,1.8C400.8,129.4,402.4,128.5,403,126.4z"/>
	<path class="st1" d="M372.7,123.1c0.2-0.6,0.3-1.2,0.3-1.9c0.2-3.9,4-3.3,7.1-3.8c2.5-0.4-4.1-6.6,0.9-8.7c1-0.3,1.8-0.9,2.4-1.7
		c0.5-1.3,0.1-2.7-1.1-3.5c-1.1-0.7-2.4-1-3.8-1c-0.8-1-0.2-2.5,0.6-3.5s1.8-2.2,1.5-3.4c-0.5-1.9-3.1-1.9-5-1.6
		c-0.7-1.1-0.7-2.6-1-3.9s-1.4-2.6-2.7-2.5s-2,1.6-3.2,1.9c-1.4,0.3-2.6-0.9-3.8-1.9s-3.1-1.5-3.8-0.3c-0.5,0.7-0.2,1.8-0.7,2.5
		c-0.8,1.3-2.8,0.5-4-0.4s-3.2-1.7-4-0.5c-0.2,0.4-0.4,0.9-0.5,1.3c-0.6,1.7-2.4,2.5-3.8,3.6s-2.5,3.2-1.3,4.5
		c0.6,0.6,1.6,0.9,1.9,1.7c0.4,1-0.7,1.9-1.5,2.6c-1.4,1.2-1.6,4.7,0.2,5.6c0.8,0.4,1.9,0.5,2.1,1.4s-0.6,1.3-1.1,1.9
		c-1.2,1.6-1,3.8,0.6,5.1c0.2,0.1,0.3,0.2,0.5,0.3c0.4,0.2,1,0.4,1.1,0.8c0.1,0.3,0,0.7-0.1,1c-0.2,0.6-0.2,1.3-0.2,2
		c0,0.2,0.1,0.5,0.2,0.6c0.2,0.1,0.4,0.2,0.6,0.2c2.6,0.1,3.9-0.8,5.5,1.5c0.1,0.2,0.3,0.4,0.5,0.6c0.2,0.1,0.5,0.2,0.7,0.2
		c1.8,0.1,3-1,4.6-1.2c2.3-0.3,2.8,0.9,4.8,1.8C370.6,126.2,372.1,125.3,372.7,123.1z"/>
	<path class="st1" d="M369.8,103.8c0.2-0.6,0.3-1.2,0.3-1.9c0.2-3.9,4-3.3,7.1-3.8c2.5-0.4-4.1-6.6,0.9-8.7c1-0.3,1.8-0.9,2.4-1.7
		c0.5-1.3,0.1-2.7-1.1-3.5c-1.1-0.7-2.5-1-3.8-0.9c-0.8-1-0.1-2.5,0.6-3.5s1.8-2.2,1.5-3.4c-0.5-1.9-3.1-1.9-5-1.6
		c-0.7-1.1-0.7-2.6-1-3.8s-1.4-2.7-2.7-2.5s-2,1.6-3.2,1.8c-1.4,0.3-2.6-0.9-3.8-1.9s-3.1-1.5-3.8-0.3c-0.5,0.7-0.2,1.8-0.7,2.5
		c-0.8,1.3-2.8,0.5-4-0.4s-3.2-1.7-4-0.5c-0.2,0.4-0.4,0.8-0.5,1.3c-0.6,1.7-2.4,2.5-3.8,3.6s-2.5,3.2-1.3,4.5
		c0.6,0.6,1.6,0.9,1.9,1.7c0.4,1-0.7,1.9-1.5,2.6c-1.4,1.2-1.6,4.7,0.2,5.6c0.8,0.4,1.9,0.5,2.1,1.4s-0.6,1.3-1.1,1.9
		c-1.2,1.6-0.9,3.9,0.7,5.1c0.1,0.1,0.3,0.2,0.5,0.3c0.4,0.2,1,0.4,1.1,0.8c0.1,0.3,0,0.7-0.1,1c-0.2,0.6-0.2,1.3-0.2,1.9
		c0,0.2,0.1,0.4,0.2,0.6c0.2,0.1,0.4,0.2,0.6,0.2c2.6,0.1,3.9-0.8,5.5,1.5c0.1,0.2,0.3,0.4,0.5,0.6c0.2,0.1,0.5,0.2,0.7,0.2
		c1.8,0.1,3-1,4.6-1.2c2.3-0.3,2.8,0.9,4.8,1.8C367.6,106.9,369.2,106,369.8,103.8z"/>
	<path class="st1" d="M349.8,113.4c0.2-0.6,0.3-1.2,0.3-1.9c0.2-3.9,4-3.3,7.1-3.8c2.5-0.4-4.1-6.7,0.9-8.7c1-0.3,1.8-0.9,2.4-1.7
		c0.5-1.3,0.1-2.7-1.1-3.4c-1.1-0.7-2.5-1-3.8-0.9c-0.8-1-0.1-2.5,0.6-3.5s1.8-2.1,1.5-3.4c-0.5-1.9-3.1-1.9-5-1.6
		c-0.7-1.1-0.7-2.6-1-3.8s-1.4-2.7-2.7-2.5s-2,1.6-3.2,1.8c-1.4,0.3-2.6-0.9-3.8-1.9s-3.1-1.5-3.8-0.3c-0.5,0.7-0.2,1.8-0.7,2.5
		c-0.8,1.3-2.8,0.5-4-0.4s-3.2-1.7-4-0.5c-0.2,0.4-0.4,0.8-0.5,1.3c-0.6,1.7-2.4,2.5-3.8,3.6c-1.4,1.1-2.5,3.2-1.3,4.5
		c0.6,0.6,1.6,0.9,1.9,1.7c0.4,1-0.7,1.9-1.5,2.6c-1.4,1.2-1.6,4.7,0.2,5.6c0.8,0.4,1.9,0.5,2.1,1.4s-0.6,1.3-1.1,1.9
		c-1.2,1.6-0.9,3.8,0.6,5.1c0.2,0.1,0.3,0.2,0.5,0.3c0.4,0.2,1,0.4,1.1,0.8c0.1,0.3,0,0.7-0.1,1c-0.2,0.6-0.2,1.3-0.2,1.9
		c0,0.2,0.1,0.4,0.2,0.6c0.2,0.1,0.4,0.2,0.6,0.2c2.6,0.1,3.9-0.8,5.5,1.5c0.1,0.2,0.3,0.4,0.5,0.6c0.2,0.1,0.5,0.2,0.7,0.2
		c1.8,0.1,3-1,4.6-1.2c2.3-0.3,2.8,0.9,4.8,1.8C347.7,116.5,349.2,115.6,349.8,113.4z"/>
	<path class="st1" d="M329.7,109c0.2-0.6,0.3-1.2,0.3-1.9c0.2-3.9,4-3.3,7.1-3.8c2.5-0.4-4.1-6.6,0.9-8.7c1-0.3,1.8-0.9,2.4-1.7
		c0.5-1.3,0.1-2.7-1.1-3.5c-1.1-0.7-2.5-1-3.8-0.9c-0.8-1-0.2-2.5,0.6-3.5s1.8-2.2,1.5-3.4c-0.5-1.9-3.1-2-5-1.6
		c-0.7-1.1-0.7-2.6-1-3.8s-1.4-2.6-2.7-2.5s-2,1.6-3.2,1.8c-1.4,0.3-2.6-0.9-3.8-1.9s-3.1-1.5-3.8-0.3c-0.5,0.7-0.2,1.8-0.7,2.5
		c-0.8,1.3-2.8,0.5-4-0.4s-3.2-1.7-4-0.5c-0.2,0.4-0.4,0.9-0.5,1.3c-0.6,1.7-2.4,2.5-3.8,3.6s-2.5,3.2-1.3,4.5
		c0.6,0.6,1.6,0.9,1.9,1.7c0.4,1-0.7,1.9-1.5,2.6c-1.4,1.2-1.6,4.7,0.2,5.6c0.8,0.4,1.9,0.5,2.1,1.4s-0.6,1.3-1.1,1.9
		c-1.2,1.6-0.9,3.9,0.6,5.1c0.1,0.1,0.3,0.2,0.5,0.3c0.4,0.2,1,0.4,1.1,0.8c0.1,0.3,0,0.7-0.1,1c-0.2,0.6-0.2,1.3-0.2,1.9
		c0,0.2,0.1,0.5,0.2,0.6c0.2,0.1,0.4,0.2,0.6,0.2c2.6,0.1,3.9-0.8,5.5,1.5c0.1,0.2,0.3,0.4,0.5,0.6c0.2,0.1,0.5,0.2,0.7,0.2
		c1.8,0.1,3-1,4.6-1.2c2.3-0.3,2.8,0.9,4.8,1.8C327.5,112.1,329.1,111.1,329.7,109z"/>
	<path class="st1" d="M329.4,130.5c0.1-0.5,0.2-1,0.2-1.5c0.2-3.1,3.1-2.6,5.6-3c2-0.3-3.2-5.2,0.7-6.8c0.8-0.2,1.4-0.7,1.9-1.3
		c0.4-1,0.1-2.1-0.9-2.7c-0.9-0.5-1.9-0.8-3-0.8c-0.6-0.8-0.1-1.9,0.5-2.7s1.4-1.7,1.1-2.7c-0.4-1.5-2.4-1.5-3.9-1.2
		c-0.4-1-0.7-2-0.8-3c-0.3-1-1.1-2.1-2.1-1.9s-1.6,1.2-2.5,1.4c-1.1,0.3-2.1-0.7-3-1.5s-2.4-1.2-3-0.2c-0.4,0.6-0.1,1.4-0.5,2
		c-0.6,1-2.2,0.4-3.1-0.3s-2.5-1.3-3.2-0.4c-0.2,0.3-0.3,0.7-0.4,1c-0.5,1.3-1.9,2-3,2.8s-2,2.5-1,3.5c0.5,0.5,1.3,0.7,1.5,1.4
		c0.3,0.8-0.5,1.5-1.2,2.1c-1.1,0.9-1.3,3.7,0.1,4.4c0.6,0.3,1.5,0.4,1.6,1.1s-0.5,1.1-0.9,1.5c-1,1.2-0.7,3,0.5,4
		c0.1,0.1,0.2,0.2,0.4,0.2c0.4,0.2,0.8,0.3,0.9,0.7c0.1,0.3,0,0.5-0.1,0.8c-0.1,0.5-0.2,1-0.1,1.5c0,0.2,0.1,0.4,0.2,0.5
		c0.1,0.1,0.3,0.1,0.5,0.1c2.1,0.1,3.1-0.6,4.3,1.2c0.1,0.2,0.3,0.3,0.4,0.5c0.2,0.1,0.4,0.1,0.6,0.1c1.4,0.1,2.4-0.8,3.6-0.9
		c1.8-0.2,2.2,0.7,3.8,1.4C327.7,133,329,132.2,329.4,130.5z"/>
	<path class="st1" d="M318.1,123.1c0.2-0.6,0.3-1.2,0.3-1.9c0.2-3.9,4-3.3,7.1-3.8c2.5-0.4-4.1-6.6,0.9-8.7c1-0.3,1.8-0.9,2.4-1.7
		c0.5-1.3,0.1-2.7-1.1-3.5c-1.1-0.7-2.4-1-3.8-1c-0.8-1-0.1-2.5,0.6-3.5s1.8-2.2,1.5-3.4c-0.5-1.9-3.1-1.9-5-1.6
		c-0.7-1.1-0.7-2.6-1-3.9s-1.4-2.6-2.7-2.5s-2,1.6-3.2,1.9c-1.4,0.3-2.6-0.9-3.8-1.9s-3.1-1.5-3.8-0.3c-0.5,0.7-0.2,1.8-0.7,2.5
		c-0.8,1.3-2.8,0.5-4-0.4s-3.2-1.7-4-0.5c-0.2,0.4-0.4,0.9-0.5,1.3c-0.6,1.7-2.4,2.5-3.8,3.6s-2.5,3.2-1.3,4.5
		c0.6,0.6,1.6,0.9,1.9,1.7c0.4,1-0.7,1.9-1.5,2.6c-1.4,1.2-1.6,4.7,0.2,5.6c0.8,0.4,1.9,0.5,2.1,1.4s-0.6,1.3-1.1,1.9
		c-1.2,1.6-0.9,3.9,0.7,5.1c0.1,0.1,0.3,0.2,0.5,0.3c0.4,0.2,1,0.4,1.1,0.8c0.1,0.3,0,0.7-0.1,1c-0.2,0.6-0.2,1.3-0.2,2
		c0,0.2,0.1,0.5,0.2,0.6c0.2,0.1,0.4,0.2,0.6,0.2c2.6,0.1,3.9-0.8,5.5,1.5c0.1,0.2,0.3,0.4,0.5,0.6c0.2,0.1,0.5,0.2,0.7,0.2
		c1.8,0.1,3-1,4.6-1.2c2.3-0.3,2.8,0.9,4.8,1.8C316,126.2,317.5,125.3,318.1,123.1z"/>
	<path class="st1" d="M349.8,89.7c0.2-0.6,0.3-1.2,0.3-1.9c0.2-3.9,4-3.3,7.1-3.8c2.5-0.4-4.1-6.7,0.9-8.7c1-0.3,1.8-0.9,2.4-1.7
		c0.5-1.3,0.1-2.7-1.1-3.5c-1.1-0.7-2.4-1-3.8-1c-0.8-1-0.1-2.5,0.6-3.5s1.8-2.2,1.5-3.4c-0.5-1.9-3.1-2-5-1.6
		c-0.7-1.1-0.7-2.6-1-3.8s-1.4-2.7-2.7-2.5s-2,1.6-3.2,1.8c-1.4,0.3-2.6-0.9-3.8-1.9s-3.1-1.5-3.8-0.3c-0.5,0.7-0.2,1.8-0.7,2.5
		c-0.8,1.3-2.8,0.5-4-0.4s-3.2-1.7-4-0.5c-0.2,0.4-0.4,0.8-0.5,1.3c-0.6,1.7-2.4,2.5-3.8,3.6s-2.5,3.2-1.3,4.5
		c0.6,0.6,1.6,0.9,1.9,1.7c0.4,1-0.7,1.9-1.5,2.6c-1.4,1.2-1.6,4.7,0.2,5.6c0.8,0.4,1.9,0.5,2.1,1.4s-0.6,1.3-1.1,1.9
		c-1.2,1.6-0.9,3.8,0.6,5.1c0.2,0.1,0.3,0.2,0.5,0.3c0.4,0.2,1,0.4,1.1,0.8c0.1,0.3,0,0.7-0.1,1c-0.2,0.6-0.2,1.3-0.2,1.9
		c0,0.2,0.1,0.4,0.2,0.6c0.2,0.1,0.4,0.2,0.6,0.2c2.6,0.1,3.9-0.8,5.5,1.5c0.1,0.2,0.3,0.4,0.5,0.6c0.2,0.1,0.5,0.2,0.7,0.2
		c1.8,0.1,3-1,4.6-1.2c2.3-0.3,2.8,0.9,4.8,1.8C347.7,92.8,349.2,91.9,349.8,89.7z"/>
	<path class="st1" d="M375.7,91c0.2-0.6,0.3-1.2,0.3-1.9c0.2-3.9,4-3.3,7.1-3.8c2.5-0.4-4.1-6.7,0.9-8.7c1-0.3,1.8-0.9,2.4-1.7
		c0.5-1.3,0.1-2.7-1.1-3.4c-1.1-0.7-2.4-1.1-3.8-1c-0.8-1-0.1-2.5,0.6-3.5s1.8-2.2,1.5-3.4c-0.5-1.9-3.1-1.9-5-1.6
		c-0.7-1.1-0.7-2.6-1-3.8s-1.4-2.6-2.7-2.5s-2,1.6-3.2,1.8c-1.4,0.3-2.6-0.9-3.8-1.9s-3.1-1.5-3.8-0.3c-0.5,0.8-0.2,1.8-0.7,2.5
		c-0.8,1.3-2.8,0.5-4-0.4s-3.2-1.7-4-0.5c-0.2,0.4-0.4,0.8-0.5,1.3c-0.6,1.7-2.4,2.5-3.8,3.6s-2.5,3.2-1.3,4.5
		c0.6,0.6,1.6,0.9,1.9,1.7c0.4,1-0.7,1.9-1.5,2.7c-1.4,1.2-1.6,4.7,0.2,5.6c0.8,0.4,1.9,0.5,2.1,1.4s-0.6,1.3-1.1,1.9
		c-1.2,1.6-0.9,3.8,0.6,5.1c0.2,0.1,0.3,0.2,0.5,0.3c0.4,0.2,1,0.4,1.1,0.8c0.1,0.3,0,0.7-0.1,1c-0.2,0.6-0.2,1.3-0.2,2
		c0,0.2,0.1,0.4,0.2,0.6c0.2,0.1,0.4,0.2,0.6,0.2c2.6,0.1,3.9-0.8,5.5,1.5c0.1,0.2,0.3,0.4,0.5,0.6c0.2,0.1,0.5,0.2,0.7,0.2
		c1.8,0.1,3-1,4.6-1.2c2.3-0.3,2.8,0.9,4.8,1.8C373.6,94.1,375.1,93.2,375.7,91z"/>
	<path class="st1" d="M391.5,101.6c0.2-0.6,0.3-1.2,0.3-1.9c0.2-3.9,3.9-3.3,7.1-3.8c2.5-0.4-4.1-6.6,0.9-8.7c1-0.3,1.8-0.9,2.4-1.7
		c0.5-1.3,0.1-2.7-1.1-3.5c-1.1-0.7-2.5-1-3.8-1c-0.8-1-0.1-2.5,0.6-3.5s1.8-2.2,1.5-3.4c-0.5-1.9-3.1-2-5-1.6
		c-0.7-1.1-0.7-2.6-1-3.8s-1.4-2.6-2.7-2.5s-2,1.6-3.2,1.8c-1.4,0.3-2.6-0.9-3.8-1.9s-3.1-1.5-3.8-0.3c-0.5,0.7-0.2,1.8-0.7,2.5
		c-0.8,1.3-2.8,0.5-4-0.4s-3.2-1.7-4-0.5c-0.2,0.4-0.4,0.9-0.5,1.3c-0.6,1.7-2.4,2.5-3.8,3.6s-2.5,3.2-1.3,4.5
		c0.6,0.6,1.6,0.9,1.9,1.7c0.4,1-0.7,1.9-1.5,2.6c-1.4,1.2-1.6,4.7,0.2,5.6c0.8,0.4,1.9,0.5,2.1,1.4s-0.6,1.3-1.1,1.9
		c-1.2,1.6-0.9,3.9,0.6,5.1c0.1,0.1,0.3,0.2,0.5,0.3c0.4,0.2,1,0.4,1.1,0.8c0.1,0.3,0,0.7-0.1,1c-0.2,0.7-0.2,1.3-0.2,2
		c0,0.2,0.1,0.4,0.2,0.6c0.2,0.1,0.4,0.2,0.6,0.2c2.6,0.1,3.9-0.8,5.5,1.5c0.1,0.2,0.3,0.4,0.5,0.6c0.2,0.1,0.5,0.2,0.7,0.2
		c1.8,0.1,3-1,4.6-1.2c2.3-0.3,2.8,0.9,4.8,1.8C389.3,104.7,390.9,103.8,391.5,101.6z"/>
	<path class="st1" d="M386.7,115c0,0-6.6,9.3-8.8,12.2s-13.6,21.3-15.1,33.5c-0.2,1.3-0.3,2.4-0.5,3.4c4.9,32.2,4.1,155.1,3.9,165.2
		h-20c3.8-75.5,3.1-179.3,2.6-182.5c-0.5-3.4-7-16.1-17-21.4s-18.6-22.6-18.6-22.6h3.2c0,0,5.9,10.7,14.3,16.6
		c1.2,0.8,2.5,1.6,3.8,2.2c0-6.4,1.1-12.8,3.3-18.8l1.7,1.6c-2.3,9.5-2,15.6-1.3,19.1c3.2,1.5,6.1,3.4,8.7,5.8
		c8.7-11.3,13.6-37.2,13.6-37.2l2.2,1.2c-0.6,5.3-1.6,10.6-2.9,15.9c-1.6,6.7-6.4,19.3-8.7,25c2.7,3.8,4.9,8,6.6,12.3
		c0.2-0.4,0.5-0.7,0.8-1c5.7-5.1,16.3-29.4,16.3-29.4c2.6-5.6-1.4-20.4-1.4-20.4h3l1.3,12.9l7.5-8.2l1.4,1.1l-7.9,10.2l-4.1,12.9
		l10.6-11.7L386.7,115z"/>
	<path class="st1" d="M85.9,133.4c-0.1-0.6-0.2-1.2-0.3-1.8c-0.2-3.7-3.7-3.1-6.7-3.6c-2.3-0.4,3.8-6.3-0.8-8.2
		c-0.9-0.3-1.7-0.8-2.3-1.6c-0.5-1.2-0.1-2.6,1-3.3c1.1-0.6,2.3-1,3.6-0.9c0.8-0.9,0.1-2.3-0.6-3.3s-1.7-2-1.4-3.2
		c0.4-1.8,2.9-1.8,4.7-1.5c0.7-1.1,0.6-2.4,1-3.6s1.3-2.5,2.5-2.3s1.9,1.5,3,1.7c1.3,0.3,2.5-0.9,3.6-1.8s2.9-1.4,3.6-0.3
		c0.4,0.7,0.2,1.7,0.6,2.4c0.8,1.2,2.6,0.5,3.8-0.4s3-1.6,3.8-0.4c0.2,0.4,0.4,0.8,0.4,1.2c0.5,1.6,2.2,2.4,3.6,3.4s2.4,3,1.3,4.2
		c-0.6,0.6-1.5,0.9-1.8,1.6c-0.3,1,0.6,1.8,1.4,2.5c1.3,1.1,1.5,4.4-0.2,5.3c-0.7,0.4-1.8,0.5-2,1.3s0.6,1.3,1,1.8
		c1.2,1.5,0.9,3.6-0.6,4.8c-0.1,0.1-0.3,0.2-0.4,0.3c-0.4,0.2-0.9,0.4-1.1,0.8c-0.1,0.3,0,0.7,0.1,1c0.2,0.6,0.2,1.2,0.2,1.8
		c0,0.2-0.1,0.4-0.2,0.6c-0.2,0.1-0.3,0.2-0.5,0.1c-2.5,0.1-3.7-0.8-5.2,1.4c-0.1,0.2-0.3,0.4-0.5,0.6c-0.2,0.1-0.4,0.2-0.7,0.2
		c-1.7,0.1-2.8-0.9-4.4-1.1c-2.2-0.3-2.6,0.8-4.5,1.7C87.9,136.4,86.4,135.5,85.9,133.4z"/>
	<path class="st1" d="M114.4,130.4c-0.2-0.6-0.2-1.2-0.3-1.8c-0.2-3.7-3.7-3.1-6.7-3.6c-2.3-0.4,3.8-6.3-0.9-8.2
		c-0.9-0.3-1.7-0.8-2.3-1.6c-0.5-1.2-0.1-2.6,1-3.3c1.1-0.6,2.3-1,3.6-0.9c0.8-0.9,0.1-2.3-0.6-3.3s-1.7-2-1.4-3.2
		c0.4-1.8,2.9-1.8,4.7-1.5c0.7-1.1,0.7-2.4,1-3.6s1.3-2.5,2.5-2.3s1.9,1.5,3,1.8c1.3,0.3,2.5-0.9,3.6-1.8s2.9-1.4,3.6-0.3
		c0.4,0.7,0.2,1.7,0.6,2.4c0.8,1.2,2.6,0.5,3.8-0.4s3-1.6,3.8-0.4c0.2,0.4,0.4,0.8,0.4,1.2c0.5,1.6,2.2,2.4,3.6,3.4s2.4,3,1.3,4.2
		c-0.6,0.6-1.5,0.9-1.8,1.6c-0.3,1,0.6,1.8,1.4,2.5c1.3,1.1,1.5,4.4-0.2,5.3c-0.7,0.4-1.8,0.5-1.9,1.3s0.6,1.3,1,1.8
		c1.2,1.5,0.9,3.6-0.6,4.8c-0.1,0.1-0.3,0.2-0.4,0.3c-0.4,0.2-0.9,0.4-1.1,0.8c-0.1,0.3,0,0.7,0.1,1c0.2,0.6,0.2,1.2,0.2,1.8
		c0,0.2-0.1,0.4-0.2,0.6c-0.2,0.1-0.3,0.2-0.5,0.1c-2.5,0.1-3.7-0.8-5.2,1.4c-0.1,0.2-0.3,0.4-0.5,0.6c-0.2,0.1-0.4,0.2-0.7,0.2
		c-1.7,0.1-2.8-0.9-4.4-1.1c-2.2-0.3-2.6,0.8-4.5,1.7C116.4,133.3,115,132.4,114.4,130.4z"/>
	<path class="st1" d="M117.2,112.2c-0.1-0.6-0.2-1.2-0.3-1.8c-0.2-3.7-3.7-3.1-6.7-3.6c-2.3-0.4,3.8-6.3-0.8-8.2
		c-0.9-0.3-1.7-0.8-2.3-1.6c-0.5-1.2-0.1-2.6,1-3.3c1.1-0.6,2.3-1,3.6-0.9c0.8-0.9,0.1-2.3-0.6-3.3s-1.7-2-1.4-3.2
		c0.4-1.8,2.9-1.8,4.7-1.5c0.7-1.1,0.6-2.4,1-3.6s1.3-2.5,2.5-2.3s1.9,1.5,3,1.7c1.3,0.3,2.5-0.9,3.6-1.8s2.9-1.4,3.6-0.3
		c0.4,0.7,0.2,1.7,0.6,2.4c0.8,1.2,2.6,0.5,3.8-0.4s3-1.6,3.8-0.4c0.2,0.4,0.4,0.8,0.4,1.2c0.5,1.6,2.2,2.3,3.6,3.3s2.4,3,1.3,4.2
		c-0.6,0.6-1.5,0.9-1.8,1.6c-0.3,1,0.6,1.8,1.4,2.5c1.3,1.1,1.5,4.4-0.2,5.3c-0.7,0.4-1.8,0.5-2,1.3s0.6,1.3,1,1.8
		c1.2,1.5,0.9,3.6-0.6,4.8c-0.1,0.1-0.3,0.2-0.4,0.3c-0.4,0.2-0.9,0.4-1.1,0.8c-0.1,0.3,0,0.7,0.1,1c0.2,0.6,0.2,1.2,0.2,1.8
		c0,0.2-0.1,0.4-0.2,0.6c-0.2,0.1-0.3,0.2-0.5,0.1c-2.5,0.1-3.7-0.8-5.2,1.4c-0.1,0.2-0.3,0.4-0.5,0.6c-0.2,0.1-0.4,0.2-0.7,0.2
		c-1.7,0.1-2.8-0.9-4.4-1.1c-2.2-0.3-2.6,0.8-4.5,1.7C119.2,115.1,117.7,114.3,117.2,112.2z"/>
	<path class="st1" d="M135.9,121.3c-0.1-0.6-0.2-1.2-0.3-1.8c-0.2-3.7-3.7-3.1-6.7-3.6c-2.3-0.4,3.8-6.3-0.9-8.2
		c-0.9-0.2-1.7-0.8-2.3-1.6c-0.5-1.2-0.1-2.5,1-3.3c1.1-0.6,2.3-1,3.6-0.9c0.8-0.9,0.1-2.3-0.6-3.3s-1.6-2-1.4-3.2
		c0.4-1.8,2.9-1.8,4.7-1.5c0.7-1.1,0.6-2.4,1-3.6s1.3-2.5,2.5-2.3s1.9,1.5,3,1.7c1.3,0.3,2.5-0.9,3.5-1.8s2.9-1.4,3.6-0.3
		c0.4,0.7,0.2,1.7,0.6,2.4c0.8,1.2,2.6,0.4,3.8-0.4s3-1.6,3.8-0.4c0.2,0.4,0.4,0.8,0.4,1.2c0.5,1.6,2.2,2.4,3.6,3.4s2.4,3,1.2,4.2
		c-0.6,0.6-1.5,0.9-1.8,1.6c-0.3,1,0.6,1.8,1.4,2.5c1.3,1.1,1.5,4.4-0.2,5.3c-0.7,0.4-1.8,0.5-1.9,1.3s0.6,1.3,1,1.8
		c1.2,1.5,0.9,3.6-0.6,4.8c-0.1,0.1-0.3,0.2-0.4,0.3c-0.4,0.2-0.9,0.4-1.1,0.8c-0.1,0.3,0,0.7,0.1,1c0.2,0.6,0.2,1.2,0.2,1.8
		c0,0.2-0.1,0.4-0.2,0.6c-0.2,0.1-0.4,0.2-0.6,0.1c-2.5,0.1-3.7-0.8-5.2,1.4c-0.1,0.2-0.3,0.4-0.5,0.6c-0.2,0.1-0.4,0.2-0.7,0.2
		c-1.7,0.1-2.8-0.9-4.4-1.1c-2.2-0.3-2.6,0.8-4.5,1.7C138,124.2,136.5,123.3,135.9,121.3z"/>
	<path class="st1" d="M154.9,117.1c-0.2-0.6-0.2-1.2-0.3-1.8c-0.2-3.7-3.7-3.1-6.7-3.6c-2.3-0.4,3.8-6.3-0.9-8.2
		c-0.9-0.2-1.7-0.8-2.3-1.6c-0.5-1.2-0.1-2.5,1-3.3c1.1-0.6,2.3-1,3.6-0.9c0.8-0.9,0.1-2.3-0.6-3.3s-1.6-2-1.4-3.2
		c0.4-1.8,2.9-1.8,4.7-1.5c0.7-1.1,0.6-2.4,1-3.6s1.3-2.5,2.5-2.3c1.2,0.1,1.9,1.5,3.1,1.8c1.3,0.3,2.5-0.9,3.5-1.8s2.9-1.4,3.6-0.3
		c0.4,0.7,0.2,1.7,0.6,2.4c0.8,1.2,2.6,0.5,3.8-0.4s3-1.6,3.8-0.4c0.2,0.4,0.3,0.8,0.4,1.2c0.6,1.6,2.2,2.3,3.6,3.4s2.4,3,1.3,4.2
		c-0.6,0.6-1.5,0.9-1.8,1.6c-0.3,1,0.6,1.8,1.4,2.5c1.3,1.1,1.5,4.4-0.2,5.3c-0.7,0.4-1.8,0.5-2,1.3s0.6,1.3,1,1.8
		c1.2,1.5,0.9,3.6-0.6,4.8c-0.1,0.1-0.3,0.2-0.4,0.3c-0.4,0.2-0.9,0.4-1.1,0.8c-0.1,0.3,0,0.7,0.1,0.9c0.2,0.6,0.2,1.2,0.2,1.8
		c0,0.2-0.1,0.4-0.2,0.6c-0.2,0.1-0.4,0.2-0.6,0.1c-2.5,0.1-3.7-0.8-5.2,1.4c-0.1,0.2-0.3,0.4-0.5,0.6c-0.2,0.1-0.5,0.2-0.7,0.2
		c-1.7,0.1-2.8-0.9-4.4-1.1c-2.2-0.3-2.6,0.8-4.5,1.7C156.9,120,155.5,119.1,154.9,117.1z"/>
	<path class="st1" d="M155.2,137.4c-0.1-0.5-0.2-0.9-0.2-1.4c-0.2-2.9-2.9-2.4-5.3-2.8c-1.8-0.3,3-4.9-0.7-6.4
		c-0.7-0.2-1.3-0.6-1.8-1.2c-0.4-0.9,0-2,0.8-2.6c0.8-0.5,1.8-0.8,2.8-0.7c0.6-0.7,0.1-1.8-0.5-2.6s-1.3-1.6-1.1-2.5
		c0.3-1.4,2.3-1.4,3.7-1.2c0.4-0.9,0.6-1.9,0.8-2.9c0.3-0.9,1-2,2-1.8s1.5,1.2,2.4,1.4s2-0.7,2.8-1.4s2.3-1.1,2.8-0.2
		c0.3,0.6,0.1,1.3,0.5,1.9c0.6,0.9,2.1,0.4,3-0.3s2.4-1.3,3-0.4c0.2,0.3,0.3,0.7,0.4,1c0.4,1.2,1.8,1.9,2.8,2.6s1.9,2.4,1,3.3
		c-0.4,0.5-1.2,0.7-1.4,1.3s0.5,1.4,1.1,2c1,0.9,1.2,3.5-0.1,4.2c-0.6,0.3-1.4,0.4-1.5,1s0.4,1,0.8,1.4c0.9,1.2,0.7,2.8-0.4,3.8
		c-0.1,0.1-0.2,0.2-0.4,0.2c-0.3,0.2-0.7,0.3-0.8,0.6c-0.1,0.3,0,0.5,0.1,0.8c0.1,0.5,0.2,1,0.1,1.4c0,0.2-0.1,0.3-0.2,0.5
		c-0.1,0.1-0.3,0.1-0.4,0.1c-2,0.1-2.9-0.6-4.1,1.1c-0.1,0.2-0.2,0.3-0.4,0.4c-0.2,0.1-0.4,0.1-0.5,0.1c-1.3,0.1-2.2-0.7-3.4-0.9
		c-1.7-0.2-2.1,0.7-3.6,1.4C156.8,139.7,155.6,139,155.2,137.4z"/>
	<path class="st1" d="M165.8,130.4c-0.1-0.6-0.2-1.2-0.3-1.8c-0.2-3.7-3.7-3.1-6.7-3.6c-2.3-0.4,3.8-6.3-0.9-8.2
		c-0.9-0.3-1.7-0.8-2.3-1.6c-0.5-1.2-0.1-2.6,1-3.3c1.1-0.6,2.3-1,3.6-0.9c0.8-0.9,0.1-2.3-0.6-3.3s-1.6-2-1.4-3.2
		c0.4-1.8,2.9-1.8,4.7-1.5c0.7-1.1,0.6-2.4,1-3.6s1.3-2.5,2.5-2.3s1.9,1.5,3,1.8c1.3,0.3,2.5-0.9,3.6-1.8s2.9-1.4,3.6-0.3
		c0.4,0.7,0.2,1.7,0.6,2.4c0.8,1.2,2.6,0.5,3.8-0.4s3-1.6,3.8-0.4c0.2,0.4,0.4,0.8,0.4,1.2c0.5,1.6,2.2,2.4,3.6,3.4s2.4,3,1.3,4.2
		c-0.6,0.6-1.5,0.9-1.8,1.6c-0.3,1,0.6,1.8,1.4,2.5c1.3,1.1,1.5,4.4-0.2,5.3c-0.7,0.4-1.8,0.5-2,1.3s0.6,1.3,1.1,1.8
		c1.2,1.5,0.9,3.6-0.6,4.8c-0.1,0.1-0.3,0.2-0.4,0.3c-0.4,0.2-0.9,0.4-1.1,0.8c-0.1,0.3,0,0.7,0.1,1c0.2,0.6,0.2,1.2,0.2,1.8
		c0,0.2-0.1,0.4-0.2,0.6c-0.2,0.1-0.3,0.2-0.5,0.1c-2.5,0.1-3.7-0.8-5.2,1.4c-0.1,0.2-0.3,0.4-0.5,0.6c-0.2,0.1-0.4,0.2-0.7,0.2
		c-1.7,0.1-2.8-0.9-4.4-1.1c-2.2-0.3-2.6,0.8-4.5,1.7C167.8,133.3,166.4,132.4,165.8,130.4z"/>
	<path class="st1" d="M135.9,98.9c-0.1-0.6-0.2-1.2-0.3-1.8c-0.2-3.7-3.7-3.1-6.7-3.6c-2.3-0.4,3.8-6.3-0.9-8.2
		c-0.9-0.2-1.7-0.8-2.3-1.6c-0.5-1.2-0.1-2.6,1-3.3c1.1-0.6,2.3-1,3.6-0.9c0.8-0.9,0.1-2.3-0.6-3.3s-1.6-2-1.4-3.2
		c0.4-1.8,2.9-1.8,4.7-1.5c0.7-1.1,0.6-2.4,1-3.6s1.3-2.5,2.5-2.3s1.9,1.5,3,1.7c1.3,0.3,2.5-0.9,3.5-1.8s2.9-1.4,3.6-0.3
		c0.4,0.7,0.2,1.7,0.6,2.4c0.8,1.2,2.6,0.5,3.8-0.4s3-1.6,3.8-0.4c0.2,0.4,0.4,0.8,0.4,1.2c0.5,1.6,2.2,2.3,3.6,3.3s2.4,3,1.2,4.2
		c-0.6,0.6-1.5,0.8-1.8,1.6c-0.3,1,0.6,1.8,1.4,2.5c1.3,1.1,1.5,4.4-0.2,5.3c-0.7,0.4-1.8,0.5-1.9,1.3s0.6,1.3,1,1.8
		c1.2,1.5,0.9,3.6-0.6,4.8c-0.1,0.1-0.3,0.2-0.4,0.3c-0.4,0.2-0.9,0.4-1.1,0.8c-0.1,0.3,0,0.7,0.1,1c0.2,0.6,0.3,1.2,0.2,1.8
		c0,0.2-0.1,0.4-0.2,0.6c-0.2,0.1-0.4,0.2-0.6,0.1c-2.5,0.1-3.7-0.8-5.2,1.4c-0.1,0.2-0.3,0.4-0.5,0.6c-0.2,0.1-0.4,0.2-0.7,0.2
		c-1.7,0.1-2.8-0.9-4.4-1.1c-2.2-0.3-2.6,0.8-4.5,1.7C138,101.8,136.5,101,135.9,98.9z"/>
	<path class="st1" d="M111.6,100.2c-0.2-0.6-0.2-1.2-0.3-1.8c-0.2-3.7-3.7-3.1-6.7-3.6c-2.3-0.4,3.8-6.3-0.9-8.2
		c-0.9-0.2-1.7-0.8-2.3-1.6c-0.5-1.2-0.1-2.5,1-3.3c1.1-0.6,2.3-1,3.6-0.9c0.8-0.9,0.2-2.3-0.6-3.3s-1.7-2-1.4-3.2
		c0.4-1.8,2.9-1.8,4.7-1.5c0.7-1.1,0.7-2.4,1-3.6s1.3-2.5,2.5-2.3s1.9,1.5,3,1.7c1.3,0.3,2.5-0.9,3.6-1.8s2.9-1.4,3.6-0.3
		c0.4,0.7,0.2,1.7,0.6,2.4c0.8,1.2,2.6,0.4,3.8-0.4s3-1.6,3.8-0.4c0.2,0.4,0.4,0.8,0.4,1.2c0.6,1.6,2.2,2.3,3.6,3.3s2.4,3,1.3,4.2
		c-0.6,0.6-1.5,0.8-1.8,1.6c-0.3,1,0.6,1.8,1.4,2.5c1.3,1.1,1.5,4.4-0.2,5.3c-0.7,0.4-1.8,0.5-2,1.3s0.6,1.3,1,1.8
		c1.2,1.5,0.9,3.6-0.6,4.8c-0.1,0.1-0.3,0.2-0.4,0.3c-0.4,0.2-0.9,0.4-1.1,0.8c-0.1,0.3,0,0.7,0.1,0.9c0.2,0.6,0.2,1.2,0.2,1.8
		c0,0.2-0.1,0.4-0.2,0.6c-0.2,0.1-0.3,0.2-0.5,0.1c-2.5,0.1-3.7-0.8-5.2,1.4c-0.1,0.2-0.3,0.4-0.5,0.6c-0.2,0.1-0.4,0.2-0.7,0.2
		c-1.7,0.1-2.8-0.9-4.4-1.1c-2.2-0.3-2.6,0.8-4.5,1.7C113.6,103.1,112.1,102.2,111.6,100.2z"/>
	<path class="st1" d="M96.7,110.1c-0.1-0.6-0.2-1.2-0.3-1.8c-0.2-3.7-3.7-3.1-6.7-3.6c-2.3-0.4,3.8-6.3-0.9-8.2
		c-0.9-0.2-1.7-0.8-2.3-1.6c-0.5-1.2-0.1-2.5,1-3.3c1.1-0.6,2.3-1,3.6-0.9c0.8-0.9,0.1-2.3-0.6-3.3s-1.6-2-1.4-3.2
		c0.4-1.8,2.9-1.8,4.7-1.5c0.7-1.1,0.7-2.4,1-3.6s1.3-2.5,2.5-2.3s1.9,1.5,3,1.7c1.3,0.3,2.5-0.9,3.5-1.8s2.9-1.4,3.6-0.3
		c0.4,0.7,0.2,1.7,0.6,2.4c0.8,1.2,2.6,0.4,3.8-0.4s3-1.6,3.8-0.4c0.2,0.4,0.3,0.8,0.4,1.2c0.5,1.6,2.2,2.3,3.6,3.3s2.4,3,1.2,4.2
		c-0.6,0.6-1.5,0.9-1.8,1.6c-0.3,1,0.6,1.8,1.4,2.5c1.3,1.1,1.5,4.4-0.2,5.3c-0.7,0.4-1.8,0.5-2,1.3s0.6,1.3,1,1.8
		c1.2,1.5,0.9,3.6-0.6,4.8c-0.1,0.1-0.3,0.2-0.4,0.3c-0.4,0.2-0.9,0.4-1.1,0.8c-0.1,0.3,0,0.7,0.1,1c0.2,0.6,0.2,1.2,0.2,1.8
		c0,0.2-0.1,0.4-0.2,0.6c-0.2,0.1-0.4,0.2-0.6,0.1c-2.5,0.1-3.7-0.8-5.2,1.4c-0.1,0.2-0.3,0.4-0.5,0.6c-0.2,0.1-0.5,0.2-0.7,0.2
		c-1.7,0.1-2.8-0.9-4.4-1.1c-2.2-0.3-2.6,0.8-4.5,1.7C98.8,113.1,97.3,112.2,96.7,110.1z"/>
	<path class="st1" d="M101.2,122.8c0,0,6.2,8.8,8.3,11.5s12.8,20.1,14.3,31.5c0.2,1.2,0.3,2.3,0.4,3.2
		c-4.6,30.3-3.9,152.8-3.7,162.3h20.6c-2.3-93.8-4.6-175.6-4.2-178.6c0.5-3.2,6.6-15.2,16-20.2s17.5-21.3,17.5-21.3h-3
		c0,0-5.6,10-13.5,15.6c-1.1,0.8-2.3,1.5-3.6,2.1c0-6-1-12-3.1-17.7l-1.6,1.5c2.2,8.9,1.9,14.7,1.2,18c-3,1.4-5.7,3.2-8.2,5.5
		c-8.2-10.7-12.8-35-12.8-35l-2.1,1.1c0.6,5.1,1.5,10.1,2.7,15c1.5,6.3,6,18.2,8.2,23.6c-2.5,3.6-4.6,7.5-6.2,11.6
		c-0.2-0.4-0.5-0.7-0.8-0.9c-5.3-4.8-15.4-27.6-15.4-27.6c-2.4-5.3,1.3-19.2,1.3-19.2h-2.8l-1.3,12.2l-7-7.7l-1.3,1.1l7.5,9.6
		l3.8,12.1l-10-11.1L101.2,122.8z"/>
	<rect x="62.1" y="248.4" class="st2" width="358.4" height="12.1"/>
	<polygon class="st3" points="412.1,323.8 429,323.8 429,217.3 420.6,211.3 412.1,217.3 	"/>
	<polygon class="st3" points="382.3,323.8 399.1,323.8 399.1,217.3 390.7,211.3 382.3,217.3 	"/>
	<polygon class="st3" points="352.4,323.8 369.3,323.8 369.3,217.3 360.8,211.3 352.4,217.3 	"/>
	<polygon class="st3" points="322.5,323.8 339.4,323.8 339.4,217.3 331,211.3 322.5,217.3 	"/>
	<polygon class="st3" points="292.6,323.8 309.5,323.8 309.5,217.3 301.1,211.3 292.6,217.3 	"/>
	<polygon class="st3" points="262.8,323.8 279.6,323.8 279.6,217.3 271.2,211.3 262.8,217.3 	"/>
	<polygon class="st3" points="232.9,323.8 249.8,323.8 249.8,217.3 241.4,211.3 232.9,217.3 	"/>
	<polygon class="st3" points="203,323.8 219.9,323.8 219.9,217.3 211.5,211.3 203,217.3 	"/>
	<polygon class="st3" points="173.2,323.8 190.1,323.8 190.1,217.3 181.6,211.3 173.2,217.3 	"/>
	<polygon class="st3" points="143.3,323.8 160.2,323.8 160.2,217.3 151.7,211.3 143.3,217.3 	"/>
	<polygon class="st3" points="113.4,323.8 130.3,323.8 130.3,217.3 121.9,211.3 113.4,217.3 	"/>
	<polygon class="st3" points="83.6,323.8 100.4,323.8 100.4,217.3 92,211.3 83.6,217.3 	"/>
	<polygon class="st3" points="53.7,323.8 70.6,323.8 70.6,217.3 62.1,211.3 53.7,217.3 	"/>
	<path class="st2" d="M66.5,325c0,0-2.8-9.4,2.9-11.2s9-6.2,8.8-11.2s5.8-9.8,10.2-5.1s3.9-3.6,9.8-5.6s11,2.8,9.4,7.3
		s4.2,7.2,11.3,3.4s14.8,3.1,13.3,8.4s-0.3,6,4.2,4.2s12.4,3.3,9.6,9.8S66.5,325,66.5,325z"/>
	<path class="st2" d="M366.9,323.6c0,0-2.2-7.3,2.2-8.7s7-4.8,6.9-8.7s4.5-7.6,7.9-4s3-2.8,7.6-4.3s8.5,2.2,7.3,5.6s3.3,5.6,8.8,2.6
		s11.5,2.4,10.3,6.5s-0.2,4.6,3.2,3.2s9.6,2.5,7.5,7.6S366.9,323.6,366.9,323.6z"/>
	<path class="st2" d="M258.3,324.5c-5-5-0.5-13.5,4.5-14.5s10-9.8,10.3-15.4s9.2-22.8,23.2-12.2s9.7,1.6,19.9-1.4
		s16.5,5.6,12.1,12.1c0,0,10.2-2.5,14.4,7s0,15.4,0,15.4s19.1-0.6,17.4,11.3S258.3,324.5,258.3,324.5z"/>
	<path class="st0" d="M436.1,324.8v13.7h-386v-13.7c-0.1-2.3,1.6-4.2,3.9-4.3c0,0,0.1,0,0.1,0h378c2.3,0,4.1,1.9,4,4.1
		C436.1,324.7,436.1,324.7,436.1,324.8z"/>
	<rect x="72.1" y="320.5" class="st1" width="24" height="18"/>
	<rect x="118.1" y="320.5" class="st1" width="23" height="18"/>
	<rect x="163.1" y="320.5" class="st1" width="24" height="18"/>
	<rect x="209.1" y="320.5" class="st1" width="23" height="18"/>
	<rect x="254.1" y="320.5" class="st1" width="23" height="18"/>
	<rect x="299.1" y="320.5" class="st1" width="24" height="18"/>
	<rect x="345.1" y="320.5" class="st1" width="23" height="18"/>
	<rect x="390.1" y="320.5" class="st1" width="24" height="18"/>
</g>
<g id="freepik--Shadow--inject-3">
	<ellipse id="freepik--path--inject-3" class="st1" cx="250" cy="338.2" rx="193.9" ry="11.3"/>
</g>
<g id="freepik--trash-bin--inject-3">
	<rect x="391.8" y="234.9" class="st4" width="33.8" height="23.6"/>
	<path class="st5" d="M380.9,229.5v109.7h46.6V229.5H380.9z M422.5,251.6h-14.8v-8.9c0-2.1,1.7-3.8,3.8-3.8h7.3
		c2.1,0,3.8,1.7,3.8,3.8V251.6z"/>
	<path class="st6" d="M380.9,229.5v109.7h46.6V229.5H380.9z M422.5,251.6h-14.8v-8.9c0-2.1,1.7-3.8,3.8-3.8h7.3
		c2.1,0,3.8,1.7,3.8,3.8V251.6z"/>
	<rect x="380.9" y="229.5" class="st7" width="20" height="109.7"/>
	<rect x="379.7" y="225.6" class="st5" width="48.9" height="7.2"/>
	<rect x="379.7" y="225.6" class="st8" width="22.6" height="7.2"/>
</g>
<g id="freepik--Plant--inject-3">
	<path class="st5" d="M98.8,308c0,0,6.1-13.4-0.9-26.5s-9-16.3-4.6-19s6.5,10.5,6.5,10.5s3.8-9.1,0.7-18.6s-5.1-25.1-0.8-26.7
		s0.8,19.4,4.5,26.5c1.9-5,3.1-10.3,3.6-15.6c0.5-7.7-0.3-19.9,3.1-23s5.5-1,2.2,15.9c-2,10.1-3.1,20.3-3.3,30.6
		c0,0,7.3-22.1,12.2-22.8s4.9,6.5,0.7,12.8s-12.2,17.4-13.6,23.1c0,0,8-16.7,15.2-11.6c7.2,5.1-6.2,15.2-12.2,18.8
		s-10.1,26.5-10.1,26.5L98.8,308z"/>
	<path class="st9" d="M98.8,308c0,0,6.1-13.4-0.9-26.5s-9-16.3-4.6-19s6.5,10.5,6.5,10.5s3.8-9.1,0.7-18.6s-5.1-25.1-0.8-26.7
		s0.8,19.4,4.5,26.5c1.9-5,3.1-10.3,3.6-15.6c0.5-7.7-0.3-19.9,3.1-23s5.5-1,2.2,15.9c-2,10.1-3.1,20.3-3.3,30.6
		c0,0,7.3-22.1,12.2-22.8s4.9,6.5,0.7,12.8s-12.2,17.4-13.6,23.1c0,0,8-16.7,15.2-11.6c7.2,5.1-6.2,15.2-12.2,18.8
		s-10.1,26.5-10.1,26.5L98.8,308z"/>
	<path class="st5" d="M103.6,313.5c0,0-6-13.5,1.2-26.5s9.2-16.1,4.8-18.9s-6.6,10.4-6.6,10.4s-3.7-9.2-0.4-18.6s5.3-25,1.1-26.7
		s-1,19.4-4.8,26.5c-1.8-5-3-10.3-3.4-15.7c-0.4-7.7,0.5-19.9-2.8-23.1s-5.5-1-2.4,15.9c1.9,10.1,2.8,20.4,2.9,30.7
		c0,0-7-22.3-11.9-23s-5,6.5-0.8,12.8s12,17.6,13.3,23.3c0,0-7.8-16.8-15-11.8s6.1,15.3,12,19s9.8,26.6,9.8,26.6L103.6,313.5z"/>
	<polygon class="st4" points="76.1,303.9 125.3,303.9 121.4,339.2 80.1,339.2 	"/>
</g>
<g id="freepik--speech-bubble-3--inject-3">
	<path class="st5" d="M357.3,148.6c0-5.9-3.1-11.1-8-14.9c0.2-0.8,0.2-1.6,0.2-2.3c0-7.8-7.9-14.1-17.8-14.3c-3-7.5-11.9-13-22.5-13
		c-8.4,0-15.8,3.5-20,8.7c-1.1-0.1-2.1-0.2-3.2-0.2c-10.1,0-18.2,6.4-18.2,14.3c0,1.3,0.2,2.7,0.7,3.9c-6.4,3.4-10.6,9.1-10.6,15.6
		c0,6.3,3.9,11.8,9.9,15.3c0,0.1,0,0.1,0,0.2c0,7.7,7.7,14,17.3,14.3c5.3,5.2,13.5,8.5,22.6,8.5c6,0.1,12-1.5,17.2-4.4
		c0.8,0.1,1.7,0.1,2.5,0.1c10.1,0,18.2-6.4,18.2-14.3v-0.1C352.7,162.1,357.3,155.7,357.3,148.6z"/>
	<path class="st5" d="M226.1,138.6c0,1.3-1.5,2.4-3.4,2.4s-3.4-1.1-3.4-2.4s1.5-2.4,3.4-2.4S226.1,137.3,226.1,138.6z"/>
	<path class="st5" d="M252.6,137c0,3.8-4.4,6.9-9.9,6.9s-9.9-3.1-9.9-6.9s4.4-6.9,9.9-6.9S252.6,133.2,252.6,137z"/>
	<path class="st10" d="M357.3,148.6c0-5.9-3.1-11.1-8-14.9c0.2-0.8,0.2-1.6,0.2-2.3c0-7.8-7.9-14.1-17.8-14.3
		c-3-7.5-11.9-13-22.5-13c-8.4,0-15.8,3.5-20,8.7c-1.1-0.1-2.1-0.2-3.2-0.2c-10.1,0-18.2,6.4-18.2,14.3c0,1.3,0.2,2.7,0.7,3.9
		c-6.4,3.4-10.6,9.1-10.6,15.6c0,6.3,3.9,11.8,9.9,15.3c0,0.1,0,0.1,0,0.2c0,7.7,7.7,14,17.3,14.3c5.3,5.2,13.5,8.5,22.6,8.5
		c6,0.1,12-1.5,17.2-4.4c0.8,0.1,1.7,0.1,2.5,0.1c10.1,0,18.2-6.4,18.2-14.3v-0.1C352.7,162.1,357.3,155.7,357.3,148.6z"/>
	<path class="st10" d="M226.1,138.6c0,1.3-1.5,2.4-3.4,2.4s-3.4-1.1-3.4-2.4s1.5-2.4,3.4-2.4S226.1,137.3,226.1,138.6z"/>
	<path class="st10" d="M252.6,137c0,3.8-4.4,6.9-9.9,6.9s-9.9-3.1-9.9-6.9s4.4-6.9,9.9-6.9S252.6,133.2,252.6,137z"/>
</g>
<g id="freepik--speech-bubble-2--inject-3">
	<path class="st5" d="M305,66.1c0-7.2-5.1-13.3-12.4-16.1c0.2-1.1,0.4-2.2,0.4-3.3c0-8.6-7.3-15.7-16.9-17.3
		c-6.6-8.8-18-14.7-31-14.7s-24.3,5.7-30.9,14.4c-10.6,0.9-18.9,8.4-18.9,17.5c0,1.7,0.3,3.3,0.8,4.9c-5.5,3.2-9,8.5-9,14.5
		c0,8.4,7,15.5,16.4,17.2c1.4,8.6,10.1,15.1,20.6,15.1c14.4,10.1,33.5,10,47.8-0.2c9.1-1.2,16.3-7.4,17.5-15.1
		C298.4,81.2,305,74.3,305,66.1z"/>
	<ellipse class="st5" cx="231.6" cy="116.5" rx="10.1" ry="7.5"/>
	<path class="st5" d="M223.8,130.1c0,1.3-1.5,2.4-3.4,2.4s-3.4-1.1-3.4-2.4s1.5-2.4,3.4-2.4S223.8,128.8,223.8,130.1z"/>
	<path class="st10" d="M305,66.1c0-7.2-5.1-13.3-12.4-16.1c0.2-1.1,0.4-2.2,0.4-3.3c0-8.6-7.3-15.7-16.9-17.3
		c-6.6-8.8-18-14.7-31-14.7s-24.3,5.7-30.9,14.4c-10.6,0.9-18.9,8.4-18.9,17.5c0,1.7,0.3,3.3,0.8,4.9c-5.5,3.2-9,8.5-9,14.5
		c0,8.4,7,15.5,16.4,17.2c1.4,8.6,10.1,15.1,20.6,15.1c14.4,10.1,33.5,10,47.8-0.2c9.1-1.2,16.3-7.4,17.5-15.1
		C298.4,81.2,305,74.3,305,66.1z"/>
	<ellipse class="st10" cx="231.6" cy="116.5" rx="10.1" ry="7.5"/>
	<path class="st10" d="M223.8,130.1c0,1.3-1.5,2.4-3.4,2.4s-3.4-1.1-3.4-2.4s1.5-2.4,3.4-2.4S223.8,128.8,223.8,130.1z"/>
</g>
<g id="freepik--speech-bubble-1--inject-3">
	<path class="st5" d="M180.1,113.9c0,2.7-3,5-6.7,5s-6.7-2.2-6.7-5s3-5,6.7-5S180.1,111.2,180.1,113.9z"/>
	<path class="st5" d="M189.1,123c0,1.3-1.5,2.4-3.4,2.4s-3.4-1.1-3.4-2.4s1.5-2.4,3.4-2.4S189.1,121.7,189.1,123z"/>
	<path class="st10" d="M180.1,113.9c0,2.7-3,5-6.7,5s-6.7-2.2-6.7-5s3-5,6.7-5S180.1,111.2,180.1,113.9z"/>
	<path class="st10" d="M189.1,123c0,1.3-1.5,2.4-3.4,2.4s-3.4-1.1-3.4-2.4s1.5-2.4,3.4-2.4S189.1,121.7,189.1,123z"/>
	<path class="st5" d="M167.8,95.3c-0.4-3.3-2.4-6.3-5.4-7.9c0-0.4,0-0.9,0-1.3c-0.5-4.4-5.3-7.5-10.8-7c-2.1-4.1-7.4-6.6-13.4-6
		c-4.3,0.3-8.2,2.5-10.7,6.1c-0.6,0-1.2,0-1.8,0.1c-5.7,0.6-9.8,4.7-9.4,9.1c0.1,0.8,0.3,1.5,0.6,2.2c-3.4,2.3-5.4,5.7-5,9.4
		s2.9,6.4,6.5,8c0,0,0,0.1,0,0.1c0.4,4.3,5.1,7.4,10.6,7c3.8,2.8,8.5,4,13.2,3.5c3.4-0.3,6.6-1.5,9.4-3.5c0.5,0,0.9,0,1.4-0.1
		c5.6-0.6,9.9-4.7,9.4-9.1c0,0,0,0,0-0.1C166,103.1,168.2,99.3,167.8,95.3z"/>
	<path class="st10" d="M167.8,95.3c-0.4-3.3-2.4-6.3-5.4-7.9c0-0.4,0-0.9,0-1.3c-0.5-4.4-5.3-7.5-10.8-7c-2.1-4.1-7.4-6.6-13.4-6
		c-4.3,0.3-8.2,2.5-10.7,6.1c-0.6,0-1.2,0-1.8,0.1c-5.7,0.6-9.8,4.7-9.4,9.1c0.1,0.8,0.3,1.5,0.6,2.2c-3.4,2.3-5.4,5.7-5,9.4
		s2.9,6.4,6.5,8c0,0,0,0.1,0,0.1c0.4,4.3,5.1,7.4,10.6,7c3.8,2.8,8.5,4,13.2,3.5c3.4-0.3,6.6-1.5,9.4-3.5c0.5,0,0.9,0,1.4-0.1
		c5.6-0.6,9.9-4.7,9.4-9.1c0,0,0,0,0-0.1C166,103.1,168.2,99.3,167.8,95.3z"/>
</g>
<g id="freepik--Symbol--inject-3">
	<path class="st5" d="M314.1,140.9c0.2-2.7-2-4.6-5.6-4.9c-3-0.4-6,0.8-8,3.1l-4.4-3.3c2.9-3.4,7.4-5.3,13.4-4.9
		c7,0.5,11.5,4,11.1,9.5c-0.6,7.8-8.8,7.9-9.2,13.5l-6.1-0.4C305.6,146.4,313.7,145.6,314.1,140.9z M303.8,161.1
		c0.3-2.1,2.2-3.6,4.3-3.3c1.9,0.2,3.4,1.9,3.3,3.9c-0.3,2.1-2.2,3.6-4.3,3.3C305.2,164.7,303.8,163.1,303.8,161.1z"/>
</g>
<g id="freepik--light-bulb--inject-3">
	<path class="st4" d="M256.6,85.9c-0.1,2.7-4,4.8-8.6,4.5s-8.3-2.6-8.1-5.4s4-4.8,8.6-4.5S256.8,83.1,256.6,85.9z"/>
	<path class="st4" d="M260.7,77c0.5-0.4,0.8-1,0.8-1.6c0.1-2.7-5.5-5.1-12.5-5.5s-12.9,1.5-13,4.2c0,0.6,0.2,1.2,0.7,1.7
		c-0.2,0.3-0.2,0.5-0.3,0.9c0,0.6,0.2,1.2,0.7,1.6c-0.2,0.3-0.3,0.6-0.3,0.9c0,0.6,0.3,1.2,0.7,1.6c-0.2,0.3-0.3,0.6-0.3,0.9
		c0,0.6,0.3,1.2,0.7,1.6c-0.2,0.3-0.3,0.6-0.3,0.9c-0.1,2.2,4.5,4.3,10.4,4.6s10.7-1.3,10.8-3.5c0-0.3-0.1-0.6-0.2-0.9
		c0.5-0.4,0.8-0.9,0.9-1.6c0-0.3-0.1-0.6-0.2-0.9c0.5-0.4,0.8-0.9,0.9-1.6c0-0.3-0.1-0.6-0.2-0.9c0.5-0.4,0.8-1,0.8-1.6
		C260.9,77.6,260.9,77.3,260.7,77z"/>
	<path class="st11" d="M260.7,77c0.5-0.4,0.8-1,0.8-1.6c0.1-2.7-5.5-5.1-12.5-5.5s-12.9,1.5-13,4.2c0,0.6,0.2,1.2,0.7,1.7
		c-0.2,0.3-0.2,0.5-0.3,0.9c0,0.6,0.2,1.2,0.7,1.6c-0.2,0.3-0.3,0.6-0.3,0.9c0,0.6,0.3,1.2,0.7,1.6c-0.2,0.3-0.3,0.6-0.3,0.9
		c0,0.6,0.3,1.2,0.7,1.6c-0.2,0.3-0.3,0.6-0.3,0.9c-0.1,2.2,4.5,4.3,10.4,4.6s10.7-1.3,10.8-3.5c0-0.3-0.1-0.6-0.2-0.9
		c0.5-0.4,0.8-0.9,0.9-1.6c0-0.3-0.1-0.6-0.2-0.9c0.5-0.4,0.8-0.9,0.9-1.6c0-0.3-0.1-0.6-0.2-0.9c0.5-0.4,0.8-1,0.8-1.6
		C260.9,77.6,260.9,77.3,260.7,77z"/>
	<path class="st5" d="M272.5,53.7c0.6-12.5-8.9-23.1-21.4-23.7c-12.5-0.6-23.1,8.9-23.7,21.4c-0.3,6.8,2.4,13.3,7.4,17.9
		c0.9,0.8,1.4,2,1.2,3.3c0,0.1,0,0.1,0,0.2c-0.1,2.7,5.6,5.2,12.7,5.6s13.1-1.6,13.2-4.3v-0.2c0-1.2,0.5-2.4,1.6-3.2
		C268.8,66.7,272.2,60.4,272.5,53.7z"/>
	<path class="st11" d="M272.5,53.7c0.6-12.5-8.9-23.1-21.4-23.7c-12.5-0.6-23.1,8.9-23.7,21.4c-0.3,6.8,2.4,13.3,7.4,17.9
		c0.9,0.8,1.4,2,1.2,3.3c0,0.1,0,0.1,0,0.2c-0.1,2.7,5.6,5.2,12.7,5.6s13.1-1.6,13.2-4.3v-0.2c0-1.2,0.5-2.4,1.6-3.2
		C268.8,66.7,272.2,60.4,272.5,53.7z"/>
	<path class="st4" d="M252.8,74.8L252.8,74.8c-0.2,0-0.3-0.2-0.3-0.3c0,0,0,0,0,0c0.1-0.4,2-10.2,7.4-13.8l-3.3-0.2
		c-0.1,0-0.2-0.1-0.2-0.2l-1-2.7l-2.8,5.2c-0.1,0.1-0.2,0.2-0.4,0.1c0,0-0.1-0.1-0.1-0.1l-2.3-5.5l-2.8,4.6c0,0.1-0.1,0.1-0.2,0.1
		c-0.1,0-0.2-0.1-0.2-0.1l-2.3-4.8l-1.3,2.6c0,0.1-0.2,0.2-0.3,0.1l-3.6-0.2c1.4,1.7,5.8,7.5,5.5,14.5c0,0.1-0.1,0.3-0.3,0.3
		c-0.1,0-0.3-0.1-0.3-0.3c0,0,0,0,0,0c0.4-8-5.7-14.5-5.8-14.6c-0.1-0.1-0.1-0.2,0-0.3c0-0.1,0.1-0.2,0.3-0.2l4.1,0.2l1.4-3
		c0-0.1,0.1-0.1,0.2-0.1c0.1,0,0.2,0.1,0.3,0.1l2.3,4.9l2.8-4.6c0.1-0.1,0.2-0.1,0.3-0.1c0.1,0,0.2,0.1,0.2,0.2l2.3,5.5l2.8-5.2
		c0-0.1,0.1-0.1,0.3-0.1c0.1,0,0.2,0.1,0.2,0.2l1.1,3.1l4.1,0.2c0.1,0,0.2,0.1,0.3,0.2c0,0.1,0,0.2-0.1,0.3
		c-5.7,2.9-7.9,13.8-7.9,13.9C253,74.7,252.9,74.8,252.8,74.8z"/>
	<path class="st7" d="M257.2,36.8c2,4.6-1.7,10.5-8.2,13.4s-13.4,1.4-15.4-3.1s1.7-10.6,8.3-13.4S255.2,32.2,257.2,36.8z"/>
	<path class="st7" d="M255,53.1c0.8,1.8-0.7,4.2-3.3,5.4s-5.4,0.6-6.2-1.3s0.7-4.2,3.3-5.4S254.2,51.3,255,53.1z"/>
</g>
<g id="freepik--Gear--inject-3">
	<path class="st5" d="M144.7,104.6l1.4,1.2l2.6-2.6l-1.2-1.4c0.7-1,1.1-2.1,1.4-3.3l1.9-0.2v-3.6l-1.9-0.2c-0.2-1.2-0.7-2.3-1.4-3.3
		l1.2-1.4l-2.6-2.6l-1.4,1.2c-1-0.7-2.1-1.1-3.3-1.4l-0.2-1.9h-3.6l-0.2,1.9c-1.2,0.2-2.3,0.7-3.3,1.4l-1.4-1.2l-2.6,2.6l1.2,1.4
		c-0.7,1-1.1,2.1-1.4,3.3l-1.9,0.2v3.6l1.9,0.2c0.2,1.2,0.7,2.3,1.4,3.3l-1.2,1.4l2.6,2.6l1.4-1.2c1,0.7,2.1,1.1,3.3,1.4l0.2,1.9
		h3.6l0.2-1.9C142.5,105.7,143.7,105.3,144.7,104.6z M134.5,96.5c0-2.7,2.2-4.9,4.9-4.9c2.7,0,4.9,2.2,4.9,4.9
		c0,2.7-2.2,4.9-4.9,4.9c0,0,0,0,0,0C136.7,101.4,134.5,99.2,134.5,96.5C134.5,96.5,134.5,96.5,134.5,96.5z"/>
</g>
<g id="freepik--Character--inject-3">
	<polygon class="st5" points="144.1,339.2 137.5,339.2 151,268 157.6,268 	"/>
	<polygon class="st5" points="289.3,339.2 282.6,339.2 296.1,268 302.8,268 	"/>
	<polygon class="st11" points="144.1,339.2 137.5,339.2 151,268 157.6,268 	"/>
	<polygon class="st11" points="289.3,339.2 282.6,339.2 296.1,268 302.8,268 	"/>
	<rect x="147.6" y="301.1" class="st5" width="199.2" height="6.7"/>
	<rect x="147.6" y="301.1" class="st12" width="199.2" height="6.7"/>
	<polygon class="st5" points="205,339.2 211.6,339.2 198.1,268 191.5,268 	"/>
	<polygon class="st5" points="350.1,339.2 356.8,339.2 343.3,268 336.6,268 	"/>
	<polygon class="st11" points="205,339.2 211.6,339.2 198.1,268 191.5,268 	"/>
	<polygon class="st11" points="350.1,339.2 356.8,339.2 343.3,268 336.6,268 	"/>
	<polygon class="st5" points="290.3,265.1 283.7,265.1 272.7,203.9 279.3,203.9 	"/>
	<polygon class="st11" points="290.3,265.1 283.7,265.1 272.7,203.9 279.3,203.9 	"/>
	<polygon class="st5" points="159.8,265.1 153.2,265.1 142.2,203.9 148.8,203.9 	"/>
	<polygon class="st5" points="225,265.1 218.4,265.1 207.4,203.9 214,203.9 	"/>
	<polygon class="st11" points="159.8,265.1 153.2,265.1 142.2,203.9 148.8,203.9 	"/>
	<polygon class="st11" points="225,265.1 218.4,265.1 207.4,203.9 214,203.9 	"/>
	<polygon class="st5" points="301.6,208.1 129.1,208.1 127,196.6 299.6,196.6 	"/>
	<polygon class="st5" points="305.3,228.8 132.8,228.8 130.7,217.3 303.3,217.3 	"/>
	<polygon class="st5" points="309.1,249.5 136.5,249.5 134.4,238 307,238 	"/>
	<rect x="138.2" y="263.3" class="st5" width="219.9" height="7.9"/>
	<polygon class="st12" points="301.6,208.1 129.1,208.1 127,196.6 299.6,196.6 	"/>
	<polygon class="st12" points="305.3,228.8 132.8,228.8 130.7,217.3 303.3,217.3 	"/>
	<polygon class="st12" points="309.1,249.5 136.5,249.5 134.4,238 307,238 	"/>
	<rect x="138.2" y="263.3" class="st12" width="219.9" height="7.9"/>
	<rect x="192.2" y="263.3" class="st8" width="165.9" height="7.9"/>
	<g id="freepik--group--inject-3">
		<path class="st13" d="M225.9,164.4c7.5,0.8,15.9,2.2,23.1,1.4c-1.9,1.3-2.6,3.8-1.5,5.9c0.3,0.5,0.4,0.4,0.3,0.4
			c-1.8-1.5-3.8-2.7-5.9-3.8c-4.3-2.4-15.3-7.8-19.9-10.1l1.9-5.3c7.5,1.8,14.8,4.1,22,7c4,1.9,10.3,3.8,11.1,9.1
			c0.5,8.4-11.8,8.1-17.4,8.1c-5.2-0.1-10.5-0.6-15.6-1.4L225.9,164.4L225.9,164.4z"/>
		<path class="st5" d="M241,178.8l-5.1,0.6l-4.5,0.5l-2.6-6.7l-3.6-9.3l10.7,1.2l4.6,1.9C241.3,170.8,241.4,174.8,241,178.8z"/>
		<path class="st9" d="M235.9,179.4l-4.5,0.5l-2.6-6.7C230.9,174.1,234.2,176.1,235.9,179.4z"/>
		<path class="st5" d="M191.4,173c1.4-4.4,4.8-7.8,9.2-9.1c7.4-2.3,15.6-0.4,18.5,1.7S207.3,176.6,191.4,173z"/>
		<path class="st4" d="M225.2,163.8c0,0,14,20,13.7,58.4l-39.4,7.1c-0.7-2.7-1.5-10.6-3.6-21c-0.9-4.4-2-9.3-3.4-14.4
			c-2-7.3-4.6-14.4-7.7-21.3c0,0,14.3-4.5,19.5-5.6C209.3,166,225.2,163.8,225.2,163.8z"/>
		<path class="st14" d="M195.8,150.1L195.8,150.1c0.4,0.9,0.8,2,1.2,3.2l0,0c1.8,5.3,3.3,12.4,0.8,16c4,2.8,9.1,3.8,13.9,2.5
			c4.6-1,4.2-4.3,2.9-5.9c-1.8,0.1-3.6-0.6-5-1.8c-1.7-1.8-1.9-4.5-1.8-7.3L195.8,150.1z"/>
		<path class="st9" d="M195.8,150.1L195.8,150.1c0.3,1.1,0.7,2.2,1.2,3.2l0,0c1.8,4.2,5.8,10.8,12.6,10.7c-1.7-1.8-1.9-4.5-1.8-7.3
			L195.8,150.1z"/>
		<path class="st4" d="M317.1,315.1c0,0-16.6-60.2-19.4-63.6c-4.5-5.6-47.5-11.6-47.5-11.6L239,220.4l-40.6,5.7c0,0,3,28.6,8,35.9
			s70.5,6.1,74.8,7.6S302,318,302,318L317.1,315.1z"/>
		<polygon class="st7" points="211.1,225.5 198.4,227 198.9,230.9 212.4,229.3 		"/>
		<polygon class="st7" points="213,225.1 214.4,229 240.5,224.8 238.9,221.4 		"/>
		<path class="st15" d="M226.8,224.1l0.9,2.6c0.2,0.6,0.9,1,1.6,0.9l4.5-0.8c0.5-0.1,0.9-0.6,0.9-1.1c0-0.1,0-0.1-0.1-0.2l-0.9-2.6
			c-0.2-0.6-0.9-1-1.6-0.9l-4.5,0.8c-0.5,0.1-0.9,0.6-0.8,1.1C226.8,224,226.8,224,226.8,224.1z"/>
		<polygon class="st9" points="250.3,239.8 235.6,238.2 248.7,237.1 		"/>
		<path class="st4" d="M210.8,134.7c2.2,1.9,0.4,5,0.8,7.2s1.2,4.9-2,2.3S207.5,132,210.8,134.7z"/>
		<path class="st14" d="M213.9,154c0.2,2.3-0.9,4.6-3,5.7c-3.2,1.7-8.3,1-12.4-1.7c-4.4-2.9-3.6-4.2-5.6-11.2
			c-1.6-5.3,1.5-10.9,6.7-12.4c1.5-0.4,3-0.5,4.6-0.3c7,1.2,9.1,11.4,9.6,18.3C213.9,153,213.9,153.5,213.9,154z"/>
		<path class="st4" d="M194.7,151.5c3.5,1.5,3.9-3.2,3.6-3.5c-1.2-1.4-1.3-2.7-0.6-5.8s-5.6-5.6-9.7-3.8c-3.8,1.7,0.7,4.2,0.5,6.9
			C188.3,149.9,191.9,150.3,194.7,151.5z"/>
		<path class="st14" d="M190.8,152.2c0.9,1.4,2.4,2.4,4,2.8c2.1,0.4,2.7-1.7,1.8-3.7c-0.8-1.8-2.9-4.3-4.8-3.8
			S189.5,150.5,190.8,152.2z"/>
		<path class="st4" d="M202.2,144.5c0.2,0.6,0.4,0.6,0.8,0.5s0.7-0.3,0.6-0.9s-0.6-1-1-0.9S202,143.9,202.2,144.5z"/>
		<path class="st4" d="M209.3,143.6c0.1,0.6,0.4,0.6,0.8,0.5s0.7-0.3,0.6-0.9s-0.6-1-1-0.9S209.1,143,209.3,143.6z"/>
		<path class="st16" d="M208.1,144.5c0.8,1.3,1.8,2.5,3,3.6c-0.6,0.6-1.3,0.9-2.1,0.9L208.1,144.5z"/>
		<path class="st4" d="M200,143.2c-0.1,0-0.1,0-0.2,0c-0.2-0.1-0.2-0.3-0.1-0.5c0.6-1,1.6-1.7,2.8-1.9c0.2,0,0.4,0.1,0.4,0.3
			c0,0,0,0,0,0c0,0.2-0.1,0.4-0.3,0.4c0,0,0,0,0,0l0,0c-0.9,0.1-1.7,0.7-2.2,1.5C200.2,143.2,200.1,143.2,200,143.2z"/>
		<path class="st4" d="M211.4,141c-0.1,0.1-0.2,0.1-0.3,0c-0.7-0.6-1.7-0.7-2.6-0.4c-0.2,0.1-0.4,0-0.5-0.2c0,0,0,0,0,0
			c-0.1-0.2,0-0.4,0.2-0.5c1.1-0.4,2.3-0.2,3.3,0.5c0.2,0.1,0.2,0.3,0.1,0.5C211.6,141,211.5,141,211.4,141z"/>
		<path class="st4" d="M203.1,137.1c0,0,5.8,1.6,7.5-3.5s-5.1-7-5.1-7c0.6,1,0.8,2.2,0.5,3.3c0,0-1.6-3.3-6-1.5s-11.4,4.2-12.5,6.9
			c-0.6,1.3-0.5,2.8,0.2,3.9l7.6,0.7C196.7,137,200.1,135.7,203.1,137.1C203.1,137,203.1,137.1,203.1,137.1z"/>
		<path class="st4" d="M208.9,152.5c-1.8,0-3.5-0.6-4.8-1.7c-0.1-0.1-0.1-0.4,0-0.5c0.1-0.1,0.4-0.1,0.5,0c0,0,0,0,0,0
			c1.5,1.1,3.4,1.7,5.2,1.4c0.2,0,0.4,0.1,0.4,0.3c0,0.2-0.1,0.4-0.3,0.4C209.6,152.5,209.3,152.5,208.9,152.5z"/>
		<path class="st8" d="M317.1,315.1L302,318c0,0-16.5-47-20.9-48.4s-69.8-0.2-74.8-7.6s-8-35.9-8-35.9l40.7-5.7l3.3,5.7l1.9,3.2
			l6.1,10.5c0,0,43,6,47.5,11.6C300.5,254.9,317.1,315.1,317.1,315.1z"/>
		<path class="st4" d="M219.8,237.1c0,0,47.2-18.1,60-13.1s53.4,50.3,53.4,50.3L324,286c0,0-41.1-39.1-45.9-41.3s-53.1,22-53.1,22
			L219.8,237.1z"/>
		<path class="st8" d="M219.8,237.1c0,0,47.2-18.1,60-13.1s53.4,50.3,53.4,50.3L324,286c0,0-41.1-39.1-45.9-41.3s-53.1,22-53.1,22
			L219.8,237.1z"/>
		<polygon class="st14" points="340,292.5 344.1,285.7 331.6,274 327.6,280.9 		"/>
		<polygon class="st9" points="327.6,280.9 331.6,274 338.8,280.7 334.4,287.3 		"/>
		<path class="st5" d="M344.9,284.8C344.9,284.8,344.9,284.8,344.9,284.8C345,284.8,345,284.8,344.9,284.8c0.6-0.5,1.2-0.9,1.7-1.4
			c0.4-0.4,0.7-0.8,0.7-1.4c0-0.4-0.3-0.7-0.6-0.9c-0.2-0.1-0.5-0.1-0.7,0c-0.5,0.3-0.8,1.1-1.1,2c-0.1-0.7-0.4-1.3-0.9-1.8
			c-0.3-0.2-0.6-0.1-0.9,0.1c-0.2,0.2-0.3,0.4-0.3,0.7c0,1.1,1.9,2.4,2,2.5l0.1-0.1l0,0L344.9,284.8
			C344.8,284.8,344.8,284.8,344.9,284.8C344.9,284.9,344.9,284.8,344.9,284.8z M344.8,284.1c0,0.1,0,0.1,0,0.2
			c-0.6-0.5-1.5-1.4-1.5-2c0-0.1,0-0.3,0.1-0.4l0.1-0.1c0.2-0.2,0.3-0.1,0.4-0.1C344.5,282.4,344.8,283.2,344.8,284.1z M345.1,284.3
			c0.2-1.1,0.6-2.5,1.1-2.8c0.1-0.1,0.2-0.1,0.3,0c0.2,0.1,0.4,0.3,0.4,0.5C347,282.6,346.3,283.4,345.1,284.3z"/>
		<path class="st4" d="M343.7,284.6l-6,6.7c-0.2,0.2-0.2,0.6,0,0.8c0,0,0,0,0,0l0,0l5,5.1c0.6,0.5,1.5,0.5,2-0.1c0,0,0,0,0,0
			c2.1-2.4,2.9-3.6,5.6-6.5c2.5-2.5,4.7-5.2,6.8-8c1.8-2.8-1-4.5-2-3.5c-2.4,2.4-7.2,4.4-10,4.9C344.5,284,344.1,284.2,343.7,284.6z
			"/>
		<polygon class="st5" points="325.5,289.7 337.4,276.7 332.4,270.8 319.7,285.3 		"/>
		<polygon class="st8" points="325.5,289.7 337.4,276.7 332.4,270.8 319.7,285.3 		"/>
		<path class="st5" d="M320,328.6C320,328.6,320,328.6,320,328.6h0.1c0.7-0.1,1.4-0.2,2.1-0.4c0.5-0.1,1-0.4,1.3-0.9
			c0.2-0.3,0.1-0.8-0.1-1.1c-0.1-0.2-0.3-0.3-0.6-0.4c-0.6,0-1.3,0.6-1.9,1.2c0.3-0.6,0.3-1.3,0.1-2c-0.2-0.3-0.5-0.4-0.8-0.3
			c-0.3,0.1-0.5,0.2-0.6,0.5c-0.5,1,0.4,3,0.5,3.2l0.1-0.1l0,0l-0.1,0.1C320,328.4,319.9,328.5,320,328.6L320,328.6z M320.3,327.9
			c0,0-0.1,0.1-0.1,0.1c-0.4-0.8-0.5-1.7-0.3-2.5c0.1-0.1,0.2-0.2,0.3-0.3h0.1c0.3,0,0.4,0,0.4,0.1
			C320.8,326.2,320.7,327.1,320.3,327.9L320.3,327.9z M320.5,328.2c0.7-0.9,1.7-1.9,2.3-1.9c0.1,0,0.2,0.1,0.3,0.2
			c0.1,0.2,0.2,0.4,0.1,0.7C322.9,327.6,322,328,320.5,328.2L320.5,328.2z"/>
		<polygon class="st14" points="312,332.9 318.9,328.9 313.4,312.1 306.5,316.1 		"/>
		<polygon class="st9" points="306.5,316.1 313.4,312.1 316.5,321.7 309.5,325.4 		"/>
		<path class="st4" d="M319.1,327.8l-8.5,2.9c-0.3,0.1-0.5,0.4-0.4,0.7c0,0,0,0,0,0l0,0l1.9,6.9c0.2,0.7,1,1.1,1.8,0.9
			c3-1,4.3-1.7,8-3c2.3-0.8,6.9-2.1,9.9-3.7s1.3-4.5,0-4.1c-3.3,0.9-8.5,0.3-11.2-0.6C320.1,327.6,319.6,327.6,319.1,327.8z"/>
		<polygon class="st5" points="302.6,323.4 319.3,317.8 317.9,310.2 299.6,316.7 		"/>
		<polygon class="st8" points="302.6,323.4 319.3,317.8 317.9,310.2 299.6,316.7 		"/>
		<path class="st9" d="M229.6,264.5c0,0,42-21.1,49.6-24s24.1,6.2,26.9,28.7l-3.4-3.7c0,0-3.9-12.3-5-14s-21.2-4.7-21.2-4.7
			S245.4,262.4,229.6,264.5z"/>
		<path class="st9" d="M244.2,229.3l-19.2,5.9c0,0,11.2-6.3,17.3-9.1L244.2,229.3z"/>
		<path class="st13" d="M189.6,184.2c-3.3,1.2-7.9,2.9-11.1,4.3c-3.6,1.5-7.7,3.1-10.7,5.3c-0.2,0.1-0.3,0.3-0.1,0
			c0.5-0.9,0.5-2,0.1-3c-0.2-0.7-0.7-1.3-1.3-1.7c1.3,0.8,3.5,2.1,4.9,2.9c3.4,2,7,3.9,10.5,6l-1.8,5.4c-5.3-0.7-10.5-2.1-15.5-4
			c-4-1.3-7.8-3.8-6.8-8.8c1.5-8,21-14.6,28.1-17.2L189.6,184.2L189.6,184.2z"/>
		<path class="st5" d="M201,236.3l-7.5,4.2c0,0-3-25.4-5.5-45.2c-0.3-2.7-0.7-5.4-1-7.8c-1-7.9-1.9-13.8-2.2-14.8l10.9-3.7
			C195.7,168.9,203.3,194.3,201,236.3z"/>
		<path class="st5" d="M198,165c-1.4,3,0,8.3,0,8.3l-5.4,3.7c0,0-1.2-1.5-0.9-5S198,165,198,165z"/>
		<path class="st12" d="M198,165c-1.4,3,0,8.3,0,8.3l-5.4,3.7c0,0-1.2-1.5-0.9-5S198,165,198,165z"/>
		<path class="st14" d="M181.8,197.7l6.3,4.3l-8.3,4.9c0,0-4.5-4.8-2.2-7.5L181.8,197.7z"/>
		<polygon class="st14" points="190.1,207.9 183,211.7 179.9,206.9 188.1,202 		"/>
		<path class="st5" d="M216.6,164.5c0,0,7,6.5,14,25.2c5.8,15.4,4,32.5,11.9,36.9l-2.7-8.3c0,0-1.7-40.5-14.7-54.5L216.6,164.5z"/>
		<path class="st5" d="M210.3,162.9c0,0,4.5,0.2,8.9,5.4l5,0.6C220.6,165.2,215.6,163,210.3,162.9z"/>
		<path class="st12" d="M210.3,162.9c0,0,4.5,0.2,8.9,5.4l5,0.6C220.6,165.2,215.6,163,210.3,162.9z"/>
		<path class="st9" d="M188,195.3c-0.3-2.7-0.7-5.4-1-7.8c1.1-2.5,2.1-4.4,2.1-4.4S190.3,190.2,188,195.3z"/>
		<path class="st5" d="M184.8,172.7c0,0-9.6,4-17.4,8.1l8,11.7l12.2-0.9C190.4,185.2,189.3,177.9,184.8,172.7z"/>
		<path class="st17" d="M213.9,154c0.2,2.3-0.9,4.6-3,5.7c-0.5-2.1-1.2-4.1-2.2-6l5.1-1.2C213.9,153,213.9,153.5,213.9,154z"/>
		<path class="st14" d="M224.1,152.9l-7.5-1.5l2.1,8.3c0,0,6.8,1,7.1-2.6L224.1,152.9z"/>
		<polygon class="st14" points="209.5,154 213.7,160.5 218.7,159.6 216.6,151.4 		"/>
	</g>
</g>
<path class="st18" d="M420.7,35.7c-8-6.7-20.3-5.7-27.9,2.1c-7.6-7.8-19.9-8.8-27.9-2.1c-10.4,8.7-8.8,22.9-1.5,30.5l24.2,24.6
	c1.4,1.4,3.2,2.2,5.2,2.2c2,0,3.8-0.8,5.2-2.2l24.2-24.6C429.6,58.7,431.1,44.4,420.7,35.7z M417.5,61.5l-24.2,24.6
	c-0.3,0.3-0.6,0.3-0.9,0l-24.2-24.6c-5-5.1-6-14.8,1-20.8c5.4-4.5,13.6-3.8,18.8,1.4l4.8,4.9l4.8-4.9c5.2-5.3,13.5-6,18.8-1.5
	C423.5,46.7,422.5,56.5,417.5,61.5L417.5,61.5z"/>
</svg>
